<?xml version="1.0" standalone="yes"?>
<svg xmlns="http://www.w3.org/2000/svg" width="1800" height="1350">
<path style="fill:#ffffff; stroke:none;" d="M0 0L0 1500L2000 1500L2000 0L0 0z"/>
<path style="fill:#f0ae9f; stroke:none;" d="M1442 596L1442 875L1455 875L1456.6 888.972L1474 890L1520 890L1735 890L1735 889L1456 889L1456 610L1735 610L1735 609L1721 609L1721 596L1442 596z"/>
<path style="fill:#ff643e; stroke:none;" d="M1456 610L1456 889L1735 889L1735 610L1456 610z"/>
<path style="fill:#f0ae9f; stroke:none;" d="M1583 635L1583 636L1586 636L1583 635M1579.67 636.333L1580.33 636.667L1579.67 636.333z"/>
<path style="fill:#ffffff; stroke:none;" d="M1605 731C1613.63 729.637 1617.2 717.478 1619.1 710C1624.95 687.024 1618.31 663.051 1601.83 646.089C1594.43 638.468 1577.47 629.066 1572.66 645C1568.52 658.718 1594.74 668.599 1601.07 679C1606.15 687.334 1610.68 699.058 1609.7 709C1608.95 716.568 1605.35 723.425 1605 731z"/>
<path style="fill:#f0ae9f; stroke:none;" d="M1588.67 636.333L1589.33 636.667L1588.67 636.333M1591 637L1592 638L1591 637M1576 638L1577 639L1576 638M1592 638L1593 639L1592 638M1575 639L1576 640L1575 639M1574 640L1575 641L1574 640M1595 640L1596 641L1595 640M1596 641L1597 642L1596 641M1573 642L1574 643L1573 642M1597 642L1598 643L1597 642M1572 644L1573 645L1572 644M1632 644L1633 645L1632 644z"/>
<path style="fill:#ffffff; stroke:none;" d="M1633 644.654C1626.07 646.801 1622.75 654.336 1625.13 661C1627.63 667.988 1632.23 673.689 1634.25 681C1639.58 700.232 1631.79 718.487 1618.04 731.83C1616.41 733.422 1610.98 739.945 1617.11 739.458C1623.43 738.957 1630.74 732.151 1635 727.985C1650.6 712.72 1656.5 692.311 1653.84 671C1652.56 660.678 1647.63 640.121 1633 644.654z"/>
<path style="fill:#f0ae9f; stroke:none;" d="M1640 644L1641 645L1640 644M1630 645L1631 646L1630 645M1642 645L1643 646L1642 645M1644 646L1645 647L1644 646M1627 647L1628 648L1627 647M1645 647L1646 648L1645 647M1646 648L1647 649L1646 648M1604 649L1605 650L1604 649M1647 649L1648 650L1647 649M1605 650L1606 651L1605 650M1625 650L1626 651L1625 650M1572.33 651.667L1572.67 652.333L1572.33 651.667M1606 651L1607 652L1606 651M1648 651L1649 652L1648 651M1607 652L1608 653L1607 652M1624.33 652.667L1624.67 653.333L1624.33 652.667M1533 654L1533 655L1538 655L1533 654M1573 654L1574 655L1573 654M1649 654L1650 655L1649 654M1530 655L1531 656L1530 655z"/>
<path style="fill:#ffffff; stroke:none;" d="M1531 655.742C1521.69 659.318 1520.24 672.673 1529.04 677.697C1534.95 681.068 1543.4 679.173 1550 680.286C1561.49 682.223 1571.97 688.325 1579.71 697.015C1586.13 704.222 1590.22 712.498 1591.87 721.995C1592.2 723.904 1592.74 728.269 1595.79 727.248C1598.69 726.278 1598 721.301 1598 719C1598.01 710.762 1596.65 702.676 1593.55 695C1586.03 676.406 1569.29 662.304 1550 657.155C1544.36 655.649 1536.71 653.549 1531 655.742z"/>
<path style="fill:#f0ae9f; stroke:none;" d="M1542.67 655.333L1543.33 655.667L1542.67 655.333M1574 655L1575 656L1574 655M1609 655L1610 656L1609 655M1528 656L1529 657L1528 656M1547.67 656.333L1548.33 656.667L1547.67 656.333M1650.33 656.667L1650.67 657.333L1650.33 656.667M1527 657L1528 658L1527 657M1551 657L1552 658L1551 657M1526 658L1527 659L1526 658M1554 658L1555 659L1554 658M1577 658L1578 659L1577 658M1611 658L1612 659L1611 658M1525 659L1526 660L1525 659M1557 659L1558 660L1557 659M1578 659L1579 660L1578 659M1624.33 659.667L1624.67 660.333L1624.33 659.667M1651.33 659.667L1651.67 660.333L1651.33 659.667M1524 660L1525 661L1524 660M1559 660L1560 661L1559 660M1580 660L1581 661L1580 660M1561 661L1562 662L1561 661M1582 661L1583 662L1582 661M1613 661L1614 662L1613 661M1523 662L1524 663L1523 662M1563 662L1564 663L1563 662M1584 662L1585 663L1584 662M1625 662L1626 663L1625 662M1652.33 662.667L1652.67 663.333L1652.33 662.667M1565 663L1566 664L1565 663M1614 663L1615 664L1614 663M1567 664L1568 665L1567 664M1587 664L1588 665L1587 664M1568 665L1569 666L1568 665M1588 665L1589 666L1588 665M1615 665L1616 666L1615 665M1627 665L1628 666L1627 665M1522.33 666.667L1522.67 667.333L1522.33 666.667M1570 666L1571 667L1570 666M1590 666L1591 667L1590 666M1571 667L1572 668L1571 667M1591 667L1592 668L1591 667M1616.33 667.667L1616.67 668.333L1616.33 667.667M1628 667L1629 668L1628 667M1653.33 667.667L1653.67 668.333L1653.33 667.667M1592 668L1593 669L1592 668M1574 669L1575 670L1574 669M1593 669L1594 670L1593 669M1575 670L1576 671L1575 670M1594 670L1595 671L1594 670M1617 670L1618 671L1617 670M1630 670L1631 671L1630 670M1523 671L1524 672L1523 671M1576 671L1577 672L1576 671M1595 671L1596 672L1595 671M1596 672L1597 673L1596 672M1631.33 672.667L1631.67 673.333L1631.33 672.667M1654 672L1654 677L1655 677L1654 672M1524 673L1525 674L1524 673M1597 673L1598 674L1597 673M1618 673L1619 674L1618 673M1632 675L1633 676L1632 675M1599 676L1600 677L1599 676M1619.33 676.667L1619.67 677.333L1619.33 676.667M1528 677L1529 678L1528 677M1582 677L1583 678L1582 677M1600 677L1601 678L1600 677M1673.67 677.333L1674.33 677.667L1673.67 677.333z"/>
<path style="fill:#ffffff; stroke:none;" d="M1617 747C1618.09 753.505 1624.67 752.06 1630 751.996C1641.98 751.853 1654.57 746.81 1664 739.572C1678.23 728.648 1686.81 712.632 1689.56 695C1691.17 684.66 1683.61 672.866 1672.02 678.573C1661.01 683.989 1666.15 702.153 1662.56 712C1654.88 733.07 1637.88 743.109 1617 747z"/>
<path style="fill:#f0ae9f; stroke:none;" d="M1681 677L1682 678L1681 677M1529 678L1530 679L1529 678M1583 678L1584 679L1583 678M1633 678L1634 679L1633 678M1671 678L1672 679L1671 678M1683 678L1684 679L1683 678M1532 679L1532 680L1535 680L1532 679M1538 679L1538 680L1545 680L1538 679M1584 679L1585 680L1584 679M1601 679L1602 680L1601 679M1685 679L1686 680L1685 679M1550.67 680.333L1551.33 680.667L1550.67 680.333M1620 680L1620 683L1621 683L1620 680M1686 680L1687 681L1686 680M1554.67 681.333L1555.33 681.667L1554.67 681.333M1602 681L1603 682L1602 681M1634.33 681.667L1634.67 682.333L1634.33 681.667M1687 681L1688 682L1687 681M426 682L426 683L439 683L426 682M1558 682L1559 683L1558 682M1586 682L1587 683L1586 682M418.667 683.333L419.333 683.667L418.667 683.333z"/>
<path style="fill:#75758d; stroke:none;" d="M420.667 683.333L421.333 683.667L420.667 683.333z"/>
<path style="fill:#222248; stroke:none;" d="M396 809L318 809C337.961 791.56 337 770.676 337 746L337 686L274 686L274 705L315 705L315 752C315 760.021 316.221 769.206 314.072 777C307.635 800.346 283.057 792.29 270 781L269 781L257 797L257 798L271 808L271 809L251 809L251 816L694 816L694 785L695.603 773.603L711 772L724.535 774.318L745.341 803L756.04 815.397L779 816L831 816L831 722C850.036 742.728 866.292 766.782 883.576 789C889.131 796.141 896.873 811.773 905.3 815.397C913.858 819.076 929.697 816 939 816L1018 816L1294 816L1294 721L1295 721C1298.71 729.758 1306.54 737.497 1312.35 745L1347.35 790C1352.95 797.242 1359.85 810.68 1368.04 814.972C1377.82 820.097 1398.98 816 1410 816L1410 809L1392 809L1392 686L1370 686L1370 783C1350.69 761.977 1334.12 737.58 1316.65 715C1310.43 706.955 1302.78 691.998 1293.83 687.028C1288.41 684.016 1278.08 686 1272 686L1272 809C1265.87 809 1249.13 811.922 1244.6 807.397C1242.02 804.812 1243 799.323 1243 796L1171 796C1171 787.878 1167.49 769.123 1172.03 762.318C1174.72 758.286 1183.84 760 1188 760L1234 760L1234 741L1171 741C1171 733.893 1167.44 712.763 1172.6 707.603C1176.11 704.095 1186.41 706 1191 706L1241 706L1241 686L1150 686L1150 809L1122 809L1122 796L1045 796L1097 732L1119.14 704L1120 686L1017 686L1017 706L1090 706C1074.15 729.961 1053.15 751.916 1034.75 774C1025.92 784.598 1014 794.582 1014 809L987 809L987 686L965 686L965 809L940 809C936.899 809 932.029 809.823 929.603 807.397C924.664 802.458 928 782.749 928 776L928 686L907 686L907 783C887.694 761.977 871.121 737.58 853.651 715C847.426 706.955 839.776 691.998 830.829 687.028C825.409 684.017 815.083 686 809 686L809 809L779.04 808.397L769 797L749 768C778.91 763.517 786.583 714.707 764.91 696.681C742.81 678.3 699.655 686 673 686L673 809L616 809C621.765 802.335 628.332 797.256 632.1 789C638.572 774.815 638 759.198 638 744L638 686L616 686L616 745C616 756.329 617.247 768.521 612.008 779C600.36 802.296 566.527 803.365 554.263 780C548.182 768.415 549 755.685 549 743L549 686L528 686L528 745C528 758.046 526.899 771.511 531.436 784C535.256 794.516 542.225 800.597 549 809L468 809C479.146 800.409 489.093 792.248 494.961 779C499.318 769.162 501.123 758.717 500.996 748C500.213 681.778 409.885 660.012 374.359 713C368.699 721.441 365.859 731.016 364.428 741C362.958 751.266 364.193 762.167 367.344 772C372.834 789.133 384.601 796.527 396 809z"/>
<path style="fill:#75758d; stroke:none;" d="M443.667 683.333L444.333 683.667L443.667 683.333z"/>
<path style="fill:#f0ae9f; stroke:none;" d="M445.667 683.333L446.333 683.667L445.667 683.333M1561 683L1562 684L1561 683M1587 683L1588 684L1587 683M1603 683L1604 684L1603 683M1666 683L1667 684L1666 683M1688 683L1689 684L1688 683M414 684L415 685L414 684z"/>
<path style="fill:#75758d; stroke:none;" d="M415 684L416 685L415 684M449 684L450 685L449 684z"/>
<path style="fill:#f0ae9f; stroke:none;" d="M450 684L451 685L450 684M1563 684L1564 685L1563 684M274 685L274 686L337 686L317 685L274 685M410 685L411 686L410 685z"/>
<path style="fill:#75758d; stroke:none;" d="M411 685L412 686L411 685M453 685L454 686L453 685z"/>
<path style="fill:#f0ae9f; stroke:none;" d="M454 685L455 686L454 685M528 685L528 686L549 686L528 685M616 685L616 686L638 686L616 685M673 685L673 686L725 686L708 685L673 685M809 685L809 686L831 686L809 685M907 685L907 686L929 686L907 685M965 685L965 686L987 686L965 685M1017 685L1017 686L1121 686L1089 685L1017 685M1150 685L1150 686L1241 686L1213 685L1150 685M1272 685L1272 686L1294 686L1272 685M1370 685L1370 686L1392 686L1370 685M1565 685L1566 686L1565 685M1588 685L1589 686L1588 685M1604 685L1605 686L1604 685M1665.33 685.667L1665.67 686.333L1665.33 685.667M1689 685L1690 686L1689 685z"/>
<path style="fill:#75758d; stroke:none;" d="M273 686L274.028 704.397L285 706L315 706L315 705L274 705L273 686z"/>
<path style="fill:#f0ae9f; stroke:none;" d="M407 686L408 687L407 686z"/>
<path style="fill:#75758d; stroke:none;" d="M408 686L409 687L408 686M456 686L457 687L456 686z"/>
<path style="fill:#f0ae9f; stroke:none;" d="M457 686L458 687L457 686z"/>
<path style="fill:#75758d; stroke:none;" d="M527 686L527 764L528 764L528 710L527 686M549 686L549 765L550 765L550 711L549 686z"/>
<path style="fill:#f0ae9f; stroke:none;" d="M672 686L672 808L673 808L673 723C673 712.366 676.108 695.789 672 686z"/>
<path style="fill:#75758d; stroke:none;" d="M733 686L733 687L737 687L733 686z"/>
<path style="fill:#f0ae9f; stroke:none;" d="M737.667 686.333L738.333 686.667L737.667 686.333M808 686L808 808L809 808L809 723C809 712.366 812.108 695.789 808 686M831 686L832 687L831 686M906 686L906 749L905 782C909.451 778.111 907 764.681 907 759L907 709C907 702.049 908.701 692.436 906 686z"/>
<path style="fill:#75758d; stroke:none;" d="M928 686L928 808L929 808L929 723C929 712.366 932.108 695.789 928 686M1016 686L1016 706L1017 706L1016 686M1120 686L1120 703L1121 703L1120 686M1149 686L1149 808L1122 808L1122 809L1150 809L1150 723C1150 712.366 1153.11 695.789 1149 686z"/>
<path style="fill:#f0ae9f; stroke:none;" d="M1241 686L1241 706L1242 706L1241 686M1271 686L1271 808L1272 808L1272 723C1272 712.366 1275.11 695.789 1271 686z"/>
<path style="fill:#75758d; stroke:none;" d="M1294 686L1295 687L1294 686z"/>
<path style="fill:#f0ae9f; stroke:none;" d="M1369 686L1369 783L1370 783L1370 716L1369 686M1567 686L1568 687L1567 686M1589 686L1590 687L1589 686M1621 686L1621 700L1622 700L1621 686M1635 686L1635 692L1636 692L1635 686M1654 686L1654 691L1655 691L1654 686z"/>
<path style="fill:#75758d; stroke:none;" d="M405 687L406 688L405 687M459 687L460 688L459 687M741.667 687.333L742.333 687.667L741.667 687.333z"/>
<path style="fill:#f0ae9f; stroke:none;" d="M743.667 687.333L744.333 687.667L743.667 687.333M832 687L833 688L832 687M1295 687L1296 688L1295 687M1568 687L1569 688L1568 687M1605 687L1606 688L1605 687M402 688L403 689L402 688z"/>
<path style="fill:#75758d; stroke:none;" d="M403 688L404 689L403 688M461 688L462 689L461 688z"/>
<path style="fill:#f0ae9f; stroke:none;" d="M462 688L463 689L462 688z"/>
<path style="fill:#75758d; stroke:none;" d="M747 688L748 689L747 688z"/>
<path style="fill:#f0ae9f; stroke:none;" d="M748 688L749 689L748 688M1570 688L1571 689L1570 688M1590 688L1591 689L1590 688M1690 688L1690 691L1691 691L1690 688M400 689L401 690L400 689z"/>
<path style="fill:#75758d; stroke:none;" d="M401 689L402 690L401 689M463 689L464 690L463 689z"/>
<path style="fill:#f0ae9f; stroke:none;" d="M464 689L465 690L464 689z"/>
<path style="fill:#75758d; stroke:none;" d="M750.667 689.333L751.333 689.667L750.667 689.333M833 689L834 690L833 689M1296 689L1297 690L1296 689z"/>
<path style="fill:#f0ae9f; stroke:none;" d="M1571 689L1572 690L1571 689M398 690L399 691L398 690z"/>
<path style="fill:#75758d; stroke:none;" d="M399 690L400 691L399 690M465 690L466 691L465 690z"/>
<path style="fill:#f0ae9f; stroke:none;" d="M466 690L467 691L466 690z"/>
<path style="fill:#75758d; stroke:none;" d="M753 690L754 691L753 690z"/>
<path style="fill:#f0ae9f; stroke:none;" d="M754 690L755 691L754 690z"/>
<path style="fill:#75758d; stroke:none;" d="M834 690L835 691L834 690M1297 690L1298 691L1297 690z"/>
<path style="fill:#f0ae9f; stroke:none;" d="M1517 690L1517 691L1520 691L1517 690z"/>
<path style="fill:#ffffff; stroke:none;" d="M1520 690.428C1511.54 691.639 1499.82 693.138 1493.53 699.529C1487.23 705.93 1490.01 717.806 1499 719.902C1507.14 721.799 1513.92 715.31 1521 712.453C1530.84 708.479 1541.79 707.915 1552 710.745C1561.05 713.254 1568.35 717.328 1574.99 724.003C1576.88 725.91 1580.42 731.285 1583.71 730.248C1586.91 729.238 1584.5 724.747 1583.56 723C1580.31 716.983 1575.92 711.749 1571 707.04C1558 694.615 1537.91 687.864 1520 690.428z"/>
<path style="fill:#f0ae9f; stroke:none;" d="M1534 690L1534 691L1538 691L1534 690M1572 690L1573 691L1572 690M1591 690L1592 691L1591 690M1606 690L1607 691L1606 690z"/>
<path style="fill:#75758d; stroke:none;" d="M397 691L398 692L397 691M467 691L468 692L467 691M756 691L757 692L756 691z"/>
<path style="fill:#f0ae9f; stroke:none;" d="M835 691L836 692L835 691M1298 691L1299 692L1298 691M1512.67 691.333L1513.33 691.667L1512.67 691.333M1540 691L1540 692L1543 692L1540 691z"/>
<path style="fill:#75758d; stroke:none;" d="M395 692L396 693L395 692M469 692L470 693L469 692M758 692L759 693L758 692z"/>
<path style="fill:#f0ae9f; stroke:none;" d="M1508 692L1509 693L1508 692M1545 692L1546 693L1545 692M1575 692L1576 693L1575 692M1592 692L1593 693L1592 692M393 693L394 694L393 693M471 693L472 694L471 693z"/>
<path style="fill:#75758d; stroke:none;" d="M760 693L761 694L760 693z"/>
<path style="fill:#f0ae9f; stroke:none;" d="M1504.67 693.333L1505.33 693.667L1504.67 693.333M1548 693L1549 694L1548 693M1576 693L1577 694L1576 693M1607.33 693.667L1607.67 694.333L1607.33 693.667M1635 693L1635 700L1636 700L1635 693z"/>
<path style="fill:#75758d; stroke:none;" d="M392 694L393 695L392 694M472 694L473 695L472 694z"/>
<path style="fill:#f0ae9f; stroke:none;" d="M762 694L763 695L762 694z"/>
<path style="fill:#75758d; stroke:none;" d="M837 694L838 695L837 694M1300 694L1301 695L1300 694z"/>
<path style="fill:#f0ae9f; stroke:none;" d="M1502 694L1503 695L1502 694M1551 694L1552 695L1551 694M1577 694L1578 695L1577 694M1593 694L1594 695L1593 694M1653.33 694.667L1653.67 695.333L1653.33 694.667z"/>
<path style="fill:#75758d; stroke:none;" d="M473 695L474 696L473 695M763 695L764 696L763 695z"/>
<path style="fill:#f0ae9f; stroke:none;" d="M838 695L839 696L838 695z"/>
<path style="fill:#75758d; stroke:none;" d="M1301 695L1302 696L1301 695z"/>
<path style="fill:#f0ae9f; stroke:none;" d="M1499 695L1500 696L1499 695M1553 695L1554 696L1553 695M1578 695L1579 696L1578 695M1689 695L1689 698L1690 698L1689 695M389 696L390 697L389 696M475 696L476 697L475 696z"/>
<path style="fill:#75758d; stroke:none;" d="M764 696L765 697L764 696z"/>
<path style="fill:#f0ae9f; stroke:none;" d="M839 696L840 697L839 696M1302 696L1303 697L1302 696M1497 696L1498 697L1497 696M1555 696L1556 697L1555 696M1579 696L1580 697L1579 696z"/>
<path style="fill:#75758d; stroke:none;" d="M388 697L389 698L388 697M476 697L477 698L476 697z"/>
<path style="fill:#f0ae9f; stroke:none;" d="M1495 697L1496 698L1495 697M1557 697L1558 698L1557 697M1580 697L1581 698L1580 697M1594 697L1595 698L1594 697M1608.33 697.667L1608.67 698.333L1608.33 697.667z"/>
<path style="fill:#75758d; stroke:none;" d="M387 698L388 699L387 698M477 698L478 699L477 698M840 698L841 699L840 698M1303 698L1304 699L1303 698z"/>
<path style="fill:#f0ae9f; stroke:none;" d="M1494 698L1495 699L1494 698M1559 698L1560 699L1559 698M1652.33 698.667L1652.67 699.333L1652.33 698.667z"/>
<path style="fill:#75758d; stroke:none;" d="M478 699L479 700L478 699M841 699L842 700L841 699M1304 699L1305 700L1304 699z"/>
<path style="fill:#f0ae9f; stroke:none;" d="M1561 699L1562 700L1561 699z"/>
<path style="fill:#75758d; stroke:none;" d="M768 700L769 701L768 700z"/>
<path style="fill:#f0ae9f; stroke:none;" d="M842 700L843 701L842 700M1305 700L1306 701L1305 700M1492 700L1493 701L1492 700M1562 700L1563 701L1562 700M1595 700L1596 701L1595 700M1688.33 700.667L1688.67 701.333L1688.33 700.667z"/>
<path style="fill:#75758d; stroke:none;" d="M769 701L770 702L769 701z"/>
<path style="fill:#f0ae9f; stroke:none;" d="M1491 701L1492 702L1491 701M1564 701L1565 702L1564 701M1583 701L1584 702L1583 701M1651.33 701.667L1651.67 702.333L1651.33 701.667z"/>
<path style="fill:#75758d; stroke:none;" d="M431 702L431 703L434 703L431 702z"/>
<path style="fill:#f0ae9f; stroke:none;" d="M770 702L771 703L770 702M1565 702L1566 703L1565 702M1584 702L1585 703L1584 702z"/>
<path style="fill:#75758d; stroke:none;" d="M422 703L422 704L425 704L422 703z"/>
<path style="fill:#f0ae9f; stroke:none;" d="M425 703L426 704L425 703z"/>
<path style="fill:#ffffff; stroke:none;" d="M426 703.439C366.541 712.726 380.042 805.34 440 796.7C498.299 788.299 484.473 694.306 426 703.439z"/>
<path style="fill:#f0ae9f; stroke:none;" d="M439 703L440 704L439 703z"/>
<path style="fill:#75758d; stroke:none;" d="M440 703L440 704L443 704L440 703M844 703L845 704L844 703z"/>
<path style="fill:#f0ae9f; stroke:none;" d="M1120 703L1121 704L1120 703z"/>
<path style="fill:#75758d; stroke:none;" d="M1307 703L1308 704L1307 703z"/>
<path style="fill:#f0ae9f; stroke:none;" d="M1490 703L1491 704L1490 703M1596.33 703.667L1596.67 704.333L1596.33 703.667M1609 703L1609 711L1610 711L1609 703M1620 703L1620 706L1621 706L1620 703M1634.33 703.667L1634.67 704.333L1634.33 703.667M1664 703L1664 706L1665 706L1664 703z"/>
<path style="fill:#75758d; stroke:none;" d="M418.667 704.333L419.333 704.667L418.667 704.333z"/>
<path style="fill:#f0ae9f; stroke:none;" d="M420 704L421 705L420 704M444 704L445 705L444 704z"/>
<path style="fill:#75758d; stroke:none;" d="M445 704L446 705L445 704M771 704L772 705L771 704z"/>
<path style="fill:#f0ae9f; stroke:none;" d="M845 704L846 705L845 704z"/>
<path style="fill:#75758d; stroke:none;" d="M1119 704L1120 705L1119 704M1308 704L1309 705L1308 704z"/>
<path style="fill:#f0ae9f; stroke:none;" d="M1585 704L1586 705L1585 704M1650.33 704.667L1650.67 705.333L1650.33 704.667M1687.33 704.667L1687.67 705.333L1687.33 704.667M273 705L274 706L273 705z"/>
<path style="fill:#75758d; stroke:none;" d="M416 705L417 706L416 705M448 705L449 706L448 705M730 753L730 752L695 752L695 706L727 706C720.332 703.202 710.206 704.985 703 705C700.58 705.005 696.745 704.436 695.028 706.603C691.538 711.009 694 724.533 694 730C694 734.67 691.645 748.837 695.603 751.972C697.875 753.772 702.307 753 705 753L730 753z"/>
<path style="fill:#f0ae9f; stroke:none;" d="M846 705L847 706L846 705z"/>
<path style="fill:#75758d; stroke:none;" d="M1118 705L1119 706L1118 705z"/>
<path style="fill:#f0ae9f; stroke:none;" d="M1309 705L1310 706L1309 705M1569 705L1570 706L1569 705z"/>
<path style="fill:#75758d; stroke:none;" d="M379 706L380 707L379 706M413 706L414 707L413 706z"/>
<path style="fill:#f0ae9f; stroke:none;" d="M414 706L415 707L414 706M450 706L451 707L450 706z"/>
<path style="fill:#75758d; stroke:none;" d="M451 706L452 707L451 706M485 706L486 707L485 706z"/>
<path style="fill:#ffffff; stroke:none;" d="M695 706L695 752C709.544 752 730.801 755.798 743.999 748.583C756.417 741.794 758.534 717.857 745.985 710.005C732.97 701.862 709.686 706 695 706z"/>
<path style="fill:#f0ae9f; stroke:none;" d="M732.667 706.333L733.333 706.667L732.667 706.333z"/>
<path style="fill:#75758d; stroke:none;" d="M734 706L734 707L737 707L734 706M772 706L773 707L772 706M1172 706L1172 707L1241 707L1219 706L1172 706z"/>
<path style="fill:#f0ae9f; stroke:none;" d="M1570 706L1571 707L1570 706z"/>
<path style="fill:#75758d; stroke:none;" d="M378 707L379 708L378 707M411 707L412 708L411 707z"/>
<path style="fill:#f0ae9f; stroke:none;" d="M412 707L413 708L412 707M452 707L453 708L452 707z"/>
<path style="fill:#75758d; stroke:none;" d="M453 707L454 708L453 707M486 707L487 708L486 707z"/>
<path style="fill:#f0ae9f; stroke:none;" d="M739 707L740 708L739 707z"/>
<path style="fill:#75758d; stroke:none;" d="M740 707L741 708L740 707M847 707L848 708L847 707M1089 707L1090 708L1089 707M1171 707L1171 741L1172 741L1171 707M1310 707L1311 708L1310 707z"/>
<path style="fill:#f0ae9f; stroke:none;" d="M1489 707L1489 710L1490 710L1489 707M1571 707L1572 708L1571 707M1587 707L1588 708L1587 707M1633.33 707.667L1633.67 708.333L1633.33 707.667M1649 707L1650 708L1649 707M1686.33 707.667L1686.67 708.333L1686.33 707.667z"/>
<path style="fill:#75758d; stroke:none;" d="M377 708L378 709L377 708M409 708L410 709L409 708z"/>
<path style="fill:#f0ae9f; stroke:none;" d="M410 708L411 709L410 708M454 708L455 709L454 708M487 708L488 709L487 708z"/>
<path style="fill:#75758d; stroke:none;" d="M743 708L744 709L743 708M773 708L774 709L773 708M848 708L849 709L848 708M1088 708L1089 709L1088 708z"/>
<path style="fill:#f0ae9f; stroke:none;" d="M1116 708L1117 709L1116 708z"/>
<path style="fill:#75758d; stroke:none;" d="M1311 708L1312 709L1311 708z"/>
<path style="fill:#f0ae9f; stroke:none;" d="M1572 708L1573 709L1572 708M1597.33 708.667L1597.67 709.333L1597.33 708.667M1619.33 708.667L1619.67 709.333L1619.33 708.667M1663.33 708.667L1663.67 709.333L1663.33 708.667M376 709L377 710L376 709z"/>
<path style="fill:#75758d; stroke:none;" d="M408 709L409 710L408 709M456 709L457 710L456 709z"/>
<path style="fill:#f0ae9f; stroke:none;" d="M488 709L489 710L488 709M745 709L746 710L745 709M849 709L850 710L849 709M1087 709L1088 710L1087 709M1115 709L1116 710L1115 709M1312 709L1313 710L1312 709M1531 709L1531 710L1534 710L1531 709M1543 709L1543 710L1547 710L1543 709M1573 709L1574 710L1573 709M1648 709L1649 710L1648 709z"/>
<path style="fill:#75758d; stroke:none;" d="M406 710L407 711L406 710M458 710L459 711L458 710M747 710L748 711L747 710z"/>
<path style="fill:#f0ae9f; stroke:none;" d="M774 710L775 711L774 710M1086 710L1087 711L1086 710z"/>
<path style="fill:#75758d; stroke:none;" d="M1114 710L1115 711L1114 710z"/>
<path style="fill:#f0ae9f; stroke:none;" d="M1526.67 710.333L1527.33 710.667L1526.67 710.333M1550.67 710.333L1551.33 710.667L1550.67 710.333M1574 710L1575 711L1574 710M1588 710L1589 711L1588 710M1685 710L1686 711L1685 710z"/>
<path style="fill:#75758d; stroke:none;" d="M375 711L376 712L375 711M405 711L406 712L405 711M459 711L460 712L459 711M489 711L490 712L489 711z"/>
<path style="fill:#f0ae9f; stroke:none;" d="M748 711L749 712L748 711z"/>
<path style="fill:#75758d; stroke:none;" d="M774 711L775 712L774 711M1113 711L1114 712L1113 711z"/>
<path style="fill:#f0ae9f; stroke:none;" d="M1523 711L1524 712L1523 711M1554 711L1555 712L1554 711M1575 711L1576 712L1575 711M1632 711L1633 712L1632 711M1647 711L1648 712L1647 711M1662.33 711.667L1662.67 712.333L1662.33 711.667M374 712L375 713L374 712M404 712L405 713L404 712M460 712L461 713L460 712M490 712L491 713L490 712M749 712L750 713L749 712z"/>
<path style="fill:#75758d; stroke:none;" d="M851 712L852 713L851 712M1085 712L1086 713L1085 712M1314 712L1315 713L1314 712z"/>
<path style="fill:#f0ae9f; stroke:none;" d="M1490 712L1491 713L1490 712M1520 712L1521 713L1520 712M1557 712L1558 713L1557 712M1576 712L1577 713L1576 712M1589 712L1590 713L1589 712M1618 712L1619 713L1618 712z"/>
<path style="fill:#75758d; stroke:none;" d="M750 713L751 714L750 713z"/>
<path style="fill:#f0ae9f; stroke:none;" d="M775 713L776 714L775 713M852 713L853 714L852 713z"/>
<path style="fill:#75758d; stroke:none;" d="M1084 713L1085 714L1084 713M1315 713L1316 714L1315 713z"/>
<path style="fill:#f0ae9f; stroke:none;" d="M1518 713L1519 714L1518 713M1560 713L1561 714L1560 713M1631.33 713.667L1631.67 714.333L1631.33 713.667M1646 713L1647 714L1646 713M1684 713L1685 714L1684 713z"/>
<path style="fill:#75758d; stroke:none;" d="M373 714L374 715L373 714M401 714L402 715L401 714M491 714L492 715L491 714M751 714L752 715L751 714M775.333 714.667L775.667 715.333L775.333 714.667z"/>
<path style="fill:#f0ae9f; stroke:none;" d="M853 714L854 715L853 714z"/>
<path style="fill:#75758d; stroke:none;" d="M1083 714L1084 715L1083 714z"/>
<path style="fill:#f0ae9f; stroke:none;" d="M1111 714L1112 715L1111 714M1316 714L1317 715L1316 714M1491 714L1492 715L1491 714M1516 714L1517 715L1516 714M1562 714L1563 715L1562 714M1608 714L1608 717L1609 717L1608 714M1661 714L1662 715L1661 714M372 715L373 716L372 715z"/>
<path style="fill:#75758d; stroke:none;" d="M400 715L401 716L400 715z"/>
<path style="fill:#f0ae9f; stroke:none;" d="M492 715L493 716L492 715M751 715L752 716L751 715M1082 715L1083 716L1082 715z"/>
<path style="fill:#75758d; stroke:none;" d="M1110 715L1111 716L1110 715z"/>
<path style="fill:#f0ae9f; stroke:none;" d="M1514 715L1515 716L1514 715M1564 715L1565 716L1564 715M1578 715L1579 716L1578 715M1590.33 715.667L1590.67 716.333L1590.33 715.667M1598 715L1598 726L1599 726L1598 715M1617 715L1618 716L1617 715M1645 715L1646 716L1645 715M1683 715L1684 716L1683 715z"/>
<path style="fill:#75758d; stroke:none;" d="M399 716L400 717L399 716M465 716L466 717L465 716M492 716L493 717L492 716M752 716L753 717L752 716M854 716L855 717L854 716M1109 716L1110 717L1109 716M1317 716L1318 717L1317 716z"/>
<path style="fill:#f0ae9f; stroke:none;" d="M1492 716L1493 717L1492 716M1512 716L1513 717L1512 716M1566 716L1567 717L1566 716M1579 716L1580 717L1579 716M1630 716L1631 717L1630 716M1644 716L1645 717L1644 716z"/>
<path style="fill:#75758d; stroke:none;" d="M371 717L372 718L371 717M398 717L399 718L398 717z"/>
<path style="fill:#f0ae9f; stroke:none;" d="M493 717L494 718L493 717M752 717L753 718L752 717z"/>
<path style="fill:#75758d; stroke:none;" d="M855 717L856 718L855 717M1318 717L1319 718L1318 717z"/>
<path style="fill:#f0ae9f; stroke:none;" d="M1493 717L1494 718L1493 717M1511 717L1512 718L1511 717M1616.33 717.667L1616.67 718.333L1616.33 717.667M1660 717L1661 718L1660 717M1682 717L1683 718L1682 717M776.333 718.667L776.667 719.333L776.333 718.667M856 718L857 719L856 718z"/>
<path style="fill:#75758d; stroke:none;" d="M1080 718L1081 719L1080 718z"/>
<path style="fill:#f0ae9f; stroke:none;" d="M1319 718L1320 719L1319 718M1509 718L1510 719L1509 718M1569 718L1570 719L1569 718M1629 718L1630 719L1629 718M1643 718L1644 719L1643 718z"/>
<path style="fill:#75758d; stroke:none;" d="M370 719L371 720L370 719z"/>
<path style="fill:#f0ae9f; stroke:none;" d="M467 719L468 720L467 719M494 719L495 720L494 719z"/>
<path style="fill:#75758d; stroke:none;" d="M753.333 719.667L753.667 720.333L753.333 719.667M1079 719L1080 720L1079 719z"/>
<path style="fill:#f0ae9f; stroke:none;" d="M1107 719L1108 720L1107 719M1496 719L1497 720L1496 719M1507 719L1508 720L1507 719M1570 719L1571 720L1570 719M1581 719L1582 720L1581 719M1591 719L1591 722L1592 722L1591 719M1607 719L1608 720L1607 719M1642 719L1643 720L1642 719M1659 719L1660 720L1659 719M1681 719L1682 720L1681 719M396 720L397 721L396 720M468 720L469 721L468 720z"/>
<path style="fill:#75758d; stroke:none;" d="M776 720L776 724L777 724L776 720z"/>
<path style="fill:#f0ae9f; stroke:none;" d="M1078 720L1079 721L1078 720M1106 720L1107 721L1106 720M1499 720L1499 721L1502 721L1499 720M1503 720L1503 721L1506 721L1503 720M1615 720L1616 721L1615 720M1628 720L1629 721L1628 720M1658 720L1659 721L1658 720z"/>
<path style="fill:#75758d; stroke:none;" d="M369 721L370 722L369 721M395 721L396 722L395 721M469 721L470 722L469 721z"/>
<path style="fill:#f0ae9f; stroke:none;" d="M495 721L496 722L495 721M753 721L754 722L753 721z"/>
<path style="fill:#75758d; stroke:none;" d="M858 721L859 722L858 721z"/>
<path style="fill:#f0ae9f; stroke:none;" d="M1077 721L1078 722L1077 721z"/>
<path style="fill:#75758d; stroke:none;" d="M1105 721L1106 722L1105 721M1294 721L1295 722L1294 721M1321 721L1322 722L1321 721z"/>
<path style="fill:#f0ae9f; stroke:none;" d="M1582 721L1583 722L1582 721M1627 721L1628 722L1627 721M1680 721L1681 722L1680 721z"/>
<path style="fill:#75758d; stroke:none;" d="M394 722L395 723L394 722z"/>
<path style="fill:#f0ae9f; stroke:none;" d="M859 722L860 723L859 722z"/>
<path style="fill:#75758d; stroke:none;" d="M1104 722L1105 723L1104 722M1322 722L1323 723L1322 722z"/>
<path style="fill:#f0ae9f; stroke:none;" d="M1583 722L1584 723L1583 722M1606 722L1607 723L1606 722M1614 722L1615 723L1614 722M1657 722L1658 723L1657 722M1679 722L1680 723L1679 722M368 723L369 724L368 723M470 723L471 724L470 723M496 723L497 724L496 723M832 723L833 724L832 723M860 723L861 724L860 723z"/>
<path style="fill:#75758d; stroke:none;" d="M1076 723L1077 724L1076 723z"/>
<path style="fill:#f0ae9f; stroke:none;" d="M1295 723L1296 724L1295 723M1323 723L1324 724L1323 723M1531 723L1531 724L1536 724L1531 723z"/>
<path style="fill:#ffffff; stroke:none;" d="M1536 723.428C1517.4 725.656 1500.76 732.384 1488.3 747C1481.43 755.057 1478.45 774.201 1495 772.577C1503.14 771.779 1505.96 763.782 1510.04 758C1514.71 751.391 1520.96 745.844 1528 741.876C1536.23 737.236 1547.53 733.964 1557 735.439C1560.82 736.034 1572.27 741.369 1575.34 738.933C1579.22 735.85 1569.86 731.199 1568 730.27C1558.86 725.697 1546.27 722.198 1536 723.428z"/>
<path style="fill:#f0ae9f; stroke:none;" d="M1542 723L1542 724L1547 724L1542 723M1626 723L1627 724L1626 723M1639 723L1640 724L1639 723z"/>
<path style="fill:#75758d; stroke:none;" d="M368 724L369 725L368 724M393 724L394 725L393 724M471 724L472 725L471 724M496 724L497 725L496 724M833 724L834 725L833 724M1075 724L1076 725L1075 724M1296 724L1297 725L1296 724z"/>
<path style="fill:#f0ae9f; stroke:none;" d="M1525.67 724.333L1526.33 724.667L1525.67 724.333M1550.67 724.333L1551.33 724.667L1550.67 724.333M1584 724L1585 725L1584 724M1613 724L1614 725L1613 724M1625 724L1626 725L1625 724M1638 724L1639 725L1638 724M1678 724L1679 725L1678 724z"/>
<path style="fill:#75758d; stroke:none;" d="M754 725L754 732L755 732L754 725M834 725L835 726L834 725M861 725L862 726L861 725M1074 725L1075 726L1074 725z"/>
<path style="fill:#f0ae9f; stroke:none;" d="M1102 725L1103 726L1102 725z"/>
<path style="fill:#75758d; stroke:none;" d="M1297 725L1298 726L1297 725M1324 725L1325 726L1324 725z"/>
<path style="fill:#f0ae9f; stroke:none;" d="M1521.67 725.333L1522.33 725.667L1521.67 725.333M1554.67 725.333L1555.33 725.667L1554.67 725.333M1605 725L1606 726L1605 725M1612 725L1613 726L1612 725M1637 725L1638 726L1637 725M1655 725L1656 726L1655 725M1677 725L1678 726L1677 725z"/>
<path style="fill:#75758d; stroke:none;" d="M367 726L368 727L367 726z"/>
<path style="fill:#f0ae9f; stroke:none;" d="M392 726L393 727L392 726M472 726L473 727L472 726M497 726L498 727L497 726z"/>
<path style="fill:#75758d; stroke:none;" d="M862 726L863 727L862 726z"/>
<path style="fill:#f0ae9f; stroke:none;" d="M1073 726L1074 727L1073 726z"/>
<path style="fill:#75758d; stroke:none;" d="M1101 726L1102 727L1101 726M1325 726L1326 727L1325 726z"/>
<path style="fill:#f0ae9f; stroke:none;" d="M1518.67 726.333L1519.33 726.667L1518.67 726.333M1558.67 726.333L1559.33 726.667L1558.67 726.333M1577 726L1578 727L1577 726M1585 726L1586 727L1585 726M1592 726L1593 727L1592 726M1636 726L1637 727L1636 726M1654 726L1655 727L1654 726M1693.67 726.333L1694.33 726.667L1693.67 726.333z"/>
<path style="fill:#ffffff; stroke:none;" d="M1695 726.569C1686.88 727.647 1684.66 735.162 1680.56 741C1675.9 747.639 1670.07 752.966 1663 756.958C1654.29 761.876 1642.99 764.978 1633 763.41C1629.18 762.811 1617.91 757.347 1614.85 760.029C1610.72 763.654 1622.99 768.771 1625 769.742C1636.46 775.272 1649.55 776.393 1662 774.711C1678.98 772.417 1695.73 762.055 1705.48 748C1711.63 739.132 1707.86 724.862 1695 726.569z"/>
<path style="fill:#f0ae9f; stroke:none;" d="M1698 726L1698 727L1701 727L1698 726z"/>
<path style="fill:#75758d; stroke:none;" d="M391 727L392 728L391 727M473 727L474 728L473 727M497 727L498 728L497 727z"/>
<path style="fill:#f0ae9f; stroke:none;" d="M835 727L836 728L835 727M863 727L864 728L863 727z"/>
<path style="fill:#75758d; stroke:none;" d="M1100 727L1101 728L1100 727z"/>
<path style="fill:#f0ae9f; stroke:none;" d="M1298 727L1299 728L1298 727M1326 727L1327 728L1326 727M1515.67 727.333L1516.33 727.667L1515.67 727.333M1561 727L1562 728L1561 727M1578 727L1579 728L1578 727M1597 727L1598 728L1597 727M1604 727L1604 730L1605 730L1604 727M1611 727L1612 728L1611 727M1635 727L1636 728L1635 727M1690 727L1691 728L1690 727M1702 727L1703 728L1702 727M391 728L392 729L391 728M473 728L474 729L473 728z"/>
<path style="fill:#75758d; stroke:none;" d="M836 728L837 729L836 728M1099 728L1100 729L1099 728z"/>
<path style="fill:#f0ae9f; stroke:none;" d="M1299 728L1300 729L1299 728M1513 728L1514 729L1513 728M1564 728L1565 729L1564 728M1579 728L1580 729L1579 728M1594.67 728.333L1595.33 728.667L1594.67 728.333M1634 728L1635 729L1634 728M1675 728L1676 729L1675 728M1689 728L1690 729L1689 728z"/>
<path style="fill:#75758d; stroke:none;" d="M366.333 729.667L366.667 730.333L366.333 729.667M390 729L391 730L390 729M474 729L475 730L474 729z"/>
<path style="fill:#f0ae9f; stroke:none;" d="M498 729L499 730L498 729z"/>
<path style="fill:#75758d; stroke:none;" d="M837 729L838 730L837 729M1071 729L1072 730L1071 729M1300 729L1301 730L1300 729z"/>
<path style="fill:#f0ae9f; stroke:none;" d="M1511 729L1512 730L1511 729M1566 729L1567 730L1566 729M1610 729L1611 730L1610 729M1633 729L1634 730L1633 729M1652 729L1653 730L1652 729M1674 729L1675 730L1674 729M1705 729L1706 730L1705 729M390 730L391 731L390 730M474 730L475 731L474 730z"/>
<path style="fill:#75758d; stroke:none;" d="M498 730L499 731L498 730M865 730L866 731L865 730M1070 730L1071 731L1070 730z"/>
<path style="fill:#f0ae9f; stroke:none;" d="M1098 730L1099 731L1098 730z"/>
<path style="fill:#75758d; stroke:none;" d="M1301 730L1302 731L1301 730M1328 730L1329 731L1328 730z"/>
<path style="fill:#f0ae9f; stroke:none;" d="M1509 730L1510 731L1509 730M1568 730L1569 731L1568 730M1585 730L1586 731L1585 730M1609 730L1610 731L1609 730M1632 730L1633 731L1632 730M1651 730L1652 731L1651 730M1673 730L1674 731L1673 730M866 731L867 732L866 731M1069 731L1070 732L1069 731M1097 731L1098 732L1097 731z"/>
<path style="fill:#75758d; stroke:none;" d="M1329 731L1330 732L1329 731z"/>
<path style="fill:#f0ae9f; stroke:none;" d="M1507 731L1508 732L1507 731M1570 731L1571 732L1570 731M1582 731L1582 732L1585 732L1582 731M1606 731L1606 732L1609 732L1606 731M1618 731L1619 732L1618 731M1650 731L1651 732L1650 731M365 732L366 733L365 732z"/>
<path style="fill:#75758d; stroke:none;" d="M389 732L390 733L389 732M475 732L476 733L475 732z"/>
<path style="fill:#f0ae9f; stroke:none;" d="M499 732L500 733L499 732M839 732L840 733L839 732M867 732L868 733L867 732M1068 732L1069 733L1068 732z"/>
<path style="fill:#75758d; stroke:none;" d="M1096 732L1097 733L1096 732z"/>
<path style="fill:#f0ae9f; stroke:none;" d="M1302 732L1303 733L1302 732M1330 732L1331 733L1330 732M1505 732L1506 733L1505 732M1572 732L1573 733L1572 732M1617 732L1618 733L1617 732M1649 732L1650 733L1649 732M1685 732L1686 733L1685 732M1707 732L1708 733L1707 732z"/>
<path style="fill:#75758d; stroke:none;" d="M365.333 733.667L365.667 734.333L365.333 733.667M499.333 733.667L499.667 734.333L499.333 733.667M776 733L776 737L777 737L776 733M840 733L841 734L840 733M1095 733L1096 734L1095 733M1303 733L1304 734L1303 733z"/>
<path style="fill:#f0ae9f; stroke:none;" d="M1573 733L1574 734L1573 733M1616 733L1617 734L1616 733M1628 733L1629 734L1628 733M1648 733L1649 734L1648 733z"/>
<path style="fill:#75758d; stroke:none;" d="M388 734L389 735L388 734M841 734L842 735L841 734M868 734L869 735L868 734M1067 734L1068 735L1067 734M1304 734L1305 735L1304 734M1331 734L1332 735L1331 734z"/>
<path style="fill:#f0ae9f; stroke:none;" d="M1502 734L1503 735L1502 734M1575 734L1576 735L1575 734M1647 734L1648 735L1647 734M1684 734L1685 735L1684 734M1708 734L1709 735L1708 734M388 735L389 736L388 735z"/>
<path style="fill:#75758d; stroke:none;" d="M476 735L477 736L476 735z"/>
<path style="fill:#f0ae9f; stroke:none;" d="M753 735L754 736L753 735z"/>
<path style="fill:#75758d; stroke:none;" d="M869 735L870 736L869 735M1066 735L1067 736L1066 735M1332 735L1333 736L1332 735z"/>
<path style="fill:#f0ae9f; stroke:none;" d="M1547 735L1547 736L1558 736L1547 735M1576 735L1577 736L1576 735M1625 735L1626 736L1625 735z"/>
<path style="fill:#75758d; stroke:none;" d="M753 736L754 737L753 736z"/>
<path style="fill:#f0ae9f; stroke:none;" d="M842 736L843 737L842 736M870 736L871 737L870 736z"/>
<path style="fill:#75758d; stroke:none;" d="M1065 736L1066 737L1065 736z"/>
<path style="fill:#f0ae9f; stroke:none;" d="M1093 736L1094 737L1093 736M1305 736L1306 737L1305 736M1333 736L1334 737L1333 736M1499 736L1500 737L1499 736M1542.67 736.333L1543.33 736.667L1542.67 736.333M1561.67 736.333L1562.33 736.667L1561.67 736.333M1577 736L1577 739L1578 739L1577 736M1613 736L1614 737L1613 736M1623 736L1624 737L1623 736M1667 736L1668 737L1667 736M1683 736L1684 737L1683 736M364 737L365 738L364 737M500.333 737.667L500.667 738.333L500.333 737.667M776 737L777 738L776 737z"/>
<path style="fill:#75758d; stroke:none;" d="M843 737L844 738L843 737z"/>
<path style="fill:#f0ae9f; stroke:none;" d="M1064 737L1065 738L1064 737z"/>
<path style="fill:#75758d; stroke:none;" d="M1092 737L1093 738L1092 737z"/>
<path style="fill:#f0ae9f; stroke:none;" d="M1306 737L1307 738L1306 737M1498 737L1499 738L1498 737M1538.67 737.333L1539.33 737.667L1538.67 737.333M1565.67 737.333L1566.33 737.667L1565.67 737.333M1622 737L1623 738L1622 737M1643 737L1644 738L1643 737M1666 737L1667 738L1666 737z"/>
<path style="fill:#75758d; stroke:none;" d="M364 738L364 741L365 741L364 738M387 738L388 739L387 738M477.333 738.667L477.667 739.333L477.333 738.667M844 738L845 739L844 738M1091 738L1092 739L1091 738M1307 738L1308 739L1307 738z"/>
<path style="fill:#f0ae9f; stroke:none;" d="M1535 738L1536 739L1535 738M1568.67 738.333L1569.33 738.667L1568.67 738.333M1613 738L1614 739L1613 738M1620 738L1621 739L1620 738M1642 738L1643 739L1642 738M1665 738L1666 739L1665 738M1682 738L1683 739L1682 738M387 739L388 740L387 739z"/>
<path style="fill:#75758d; stroke:none;" d="M500 739L500 742L501 742L500 739M752 739L753 740L752 739M872 739L873 740L872 739M1090 739L1091 740L1090 739M1335 739L1336 740L1335 739z"/>
<path style="fill:#f0ae9f; stroke:none;" d="M1532.67 739.333L1533.33 739.667L1532.67 739.333M1571 739L1572 740L1571 739M1576 739L1577 740L1576 739M1618 739L1619 740L1618 739M1640 739L1641 740L1640 739M1681 739L1682 740L1681 739M477 740L478 741L477 740z"/>
<path style="fill:#75758d; stroke:none;" d="M775.333 740.667L775.667 741.333L775.333 740.667z"/>
<path style="fill:#f0ae9f; stroke:none;" d="M873 740L874 741L873 740z"/>
<path style="fill:#75758d; stroke:none;" d="M1062 740L1063 741L1062 740M1336 740L1337 741L1336 740z"/>
<path style="fill:#f0ae9f; stroke:none;" d="M1530 740L1531 741L1530 740M1573 740L1573 741L1576 741L1573 740M1615.67 740.333L1616.33 740.667L1615.67 740.333M1639 740L1640 741L1639 740M1662 740L1663 741L1662 740M751 741L752 742L751 741M846 741L847 742L846 741M874 741L875 742L874 741z"/>
<path style="fill:#75758d; stroke:none;" d="M1061 741L1062 742L1061 741z"/>
<path style="fill:#f0ae9f; stroke:none;" d="M1089 741L1090 742L1089 741M1234 741L1234 760L1235 760L1234 741M1309 741L1310 742L1309 741M1337 741L1338 742L1337 741M1493 741L1494 742L1493 741M1528 741L1529 742L1528 741M1637 741L1638 742L1637 741M1661 741L1662 742L1661 741M1680 741L1681 742L1680 741M775 742L776 743L775 742z"/>
<path style="fill:#75758d; stroke:none;" d="M847 742L848 743L847 742z"/>
<path style="fill:#f0ae9f; stroke:none;" d="M1060 742L1061 743L1060 742M1088 742L1089 743L1088 742z"/>
<path style="fill:#75758d; stroke:none;" d="M1310 742L1311 743L1310 742z"/>
<path style="fill:#f0ae9f; stroke:none;" d="M1492 742L1493 743L1492 742M1526 742L1527 743L1526 742M1634.67 742.333L1635.33 742.667L1634.67 742.333M1679 742L1680 743L1679 742M1708.33 742.667L1708.67 743.333L1708.33 742.667z"/>
<path style="fill:#75758d; stroke:none;" d="M386 743L386 747L387 747L386 743M750 743L751 744L750 743M848 743L849 744L848 743M875 743L876 744L875 743z"/>
<path style="fill:#f0ae9f; stroke:none;" d="M1059 743L1060 744L1059 743z"/>
<path style="fill:#75758d; stroke:none;" d="M1087 743L1088 744L1087 743M1311 743L1312 744L1311 743M1338 743L1339 744L1338 743z"/>
<path style="fill:#f0ae9f; stroke:none;" d="M1491 743L1492 744L1491 743M1632 743L1633 744L1632 743M1658 743L1659 744L1658 743z"/>
<path style="fill:#75758d; stroke:none;" d="M478 744L478 749L479 749L478 744z"/>
<path style="fill:#f0ae9f; stroke:none;" d="M749 744L750 745L749 744z"/>
<path style="fill:#75758d; stroke:none;" d="M774 744L775 745L774 744M876 744L877 745L876 744M1086 744L1087 745L1086 744M1339 744L1340 745L1339 744z"/>
<path style="fill:#f0ae9f; stroke:none;" d="M1490 744L1491 745L1490 744M1523 744L1524 745L1523 744M1629 744L1630 745L1629 744M1656 744L1657 745L1656 744M363 745L363 755L364 755L363 745M748 745L749 746L748 745M774 745L775 746L774 745M849 745L850 746L849 745M877 745L878 746L877 745z"/>
<path style="fill:#75758d; stroke:none;" d="M1058 745L1059 746L1058 745z"/>
<path style="fill:#f0ae9f; stroke:none;" d="M1312 745L1313 746L1312 745M1340 745L1341 746L1340 745M1624 745L1624 746L1627 746L1624 745M1654 745L1655 746L1654 745M1677 745L1678 746L1677 745M1707 745L1708 746L1707 745M501 746L501 753L502 753L501 746M747 746L748 747L747 746z"/>
<path style="fill:#75758d; stroke:none;" d="M850 746L851 747L850 746M1057 746L1058 747L1057 746z"/>
<path style="fill:#f0ae9f; stroke:none;" d="M1313 746L1314 747L1313 746M1520 746L1521 747L1520 746M1559 746L1559 747L1572 747L1559 746M1618.67 746.333L1619.33 746.667L1618.67 746.333M1652 746L1653 747L1652 746M1676 746L1677 747L1676 746M1706 746L1707 747L1706 746M386 747L386 753L387 753L386 747z"/>
<path style="fill:#75758d; stroke:none;" d="M746 747L747 748L746 747M773 747L774 748L773 747M851 747L852 748L851 747M1056 747L1057 748L1056 747z"/>
<path style="fill:#f0ae9f; stroke:none;" d="M1084 747L1085 748L1084 747z"/>
<path style="fill:#75758d; stroke:none;" d="M1314 747L1315 748L1314 747z"/>
<path style="fill:#f0ae9f; stroke:none;" d="M1519 747L1520 748L1519 747M1553.67 747.333L1554.33 747.667L1553.67 747.333z"/>
<path style="fill:#ffffff; stroke:none;" d="M1555 747.439C1532.29 751.014 1513.52 766.568 1505.43 788C1501.79 797.642 1495.23 825.172 1515 821.641C1519.43 820.851 1523.37 817.352 1524.57 813C1528.06 800.254 1525.34 789.088 1533.09 777C1538.7 768.247 1546.51 760.733 1556 756.324C1559.84 754.54 1570.75 754.238 1572.82 750.545C1575.6 745.598 1557.31 747.076 1555 747.439z"/>
<path style="fill:#f0ae9f; stroke:none;" d="M1573 747L1574 748L1573 747M1650 747L1651 748L1650 747M1675 747L1676 748L1675 747M744 748L745 749L744 748M773 748L774 749L773 748z"/>
<path style="fill:#75758d; stroke:none;" d="M879 748L880 749L879 748z"/>
<path style="fill:#f0ae9f; stroke:none;" d="M1055 748L1056 749L1055 748z"/>
<path style="fill:#75758d; stroke:none;" d="M1083 748L1084 749L1083 748M1342 748L1343 749L1342 748z"/>
<path style="fill:#f0ae9f; stroke:none;" d="M1518 748L1519 749L1518 748M1548.67 748.333L1549.33 748.667L1548.67 748.333M1616 748L1616 751L1617 751L1616 748M1647 748L1648 749L1647 748M1674 748L1675 749L1674 748M478 749L478 752L479 752L478 749M742 749L743 750L742 749z"/>
<path style="fill:#75758d; stroke:none;" d="M743 749L744 750L743 749M772 749L773 750L772 749z"/>
<path style="fill:#f0ae9f; stroke:none;" d="M880 749L881 750L880 749z"/>
<path style="fill:#75758d; stroke:none;" d="M1082 749L1083 750L1082 749M1343 749L1344 750L1343 749z"/>
<path style="fill:#f0ae9f; stroke:none;" d="M1486 749L1487 750L1486 749M1545.67 749.333L1546.33 749.667L1545.67 749.333M1574 749L1575 750L1574 749M1644 749L1645 750L1644 749M1673 749L1674 750L1673 749M1704 749L1705 750L1704 749M739 750L740 751L739 750z"/>
<path style="fill:#75758d; stroke:none;" d="M740 750L741 751L740 750z"/>
<path style="fill:#f0ae9f; stroke:none;" d="M772 750L773 751L772 750M853 750L854 751L853 750M881 750L882 751L881 750z"/>
<path style="fill:#75758d; stroke:none;" d="M1081 750L1082 751L1081 750z"/>
<path style="fill:#f0ae9f; stroke:none;" d="M1316 750L1317 751L1316 750M1344 750L1345 751L1344 750M1485 750L1486 751L1485 750M1542.67 750.333L1543.33 750.667L1542.67 750.333M1640.67 750.333L1641.33 750.667L1640.67 750.333M1672 750L1673 751L1672 750M1703 750L1704 751L1703 750M733.667 751.333L734.333 751.667L733.667 751.333z"/>
<path style="fill:#75758d; stroke:none;" d="M735.667 751.333L736.333 751.667L735.667 751.333M771 751L772 752L771 751M854 751L855 752L854 751M1053 751L1054 752L1053 751M1317 751L1318 752L1317 751z"/>
<path style="fill:#f0ae9f; stroke:none;" d="M1540 751L1541 752L1540 751M1573 751L1574 752L1573 751M1617 751L1618 752L1617 751M1636.67 751.333L1637.33 751.667L1636.67 751.333M1671 751L1672 752L1671 751M1702 751L1703 752L1702 751z"/>
<path style="fill:#75758d; stroke:none;" d="M478 752L478 757L479 757L478 752z"/>
<path style="fill:#f0ae9f; stroke:none;" d="M771 752L772 753L771 752z"/>
<path style="fill:#75758d; stroke:none;" d="M855 752L856 753L855 752M882 752L883 753L882 752M1052 752L1053 753L1052 752z"/>
<path style="fill:#f0ae9f; stroke:none;" d="M1080 752L1081 753L1080 752z"/>
<path style="fill:#75758d; stroke:none;" d="M1318 752L1319 753L1318 752M1345 752L1346 753L1345 752z"/>
<path style="fill:#f0ae9f; stroke:none;" d="M1537 752L1538 753L1537 752M1570.67 752.333L1571.33 752.667L1570.67 752.333M1619 752L1619 753L1632 753L1619 752z"/>
<path style="fill:#75758d; stroke:none;" d="M386 753L386 757L387 757L386 753M770 753L771 754L770 753M883 753L884 754L883 753z"/>
<path style="fill:#f0ae9f; stroke:none;" d="M1051 753L1052 754L1051 753M1079 753L1080 754L1079 753z"/>
<path style="fill:#75758d; stroke:none;" d="M1346 753L1347 754L1346 753z"/>
<path style="fill:#f0ae9f; stroke:none;" d="M1483 753L1484 754L1483 753M1513 753L1514 754L1513 753M1535 753L1536 754L1535 753M1564 753L1564 754L1567 754L1564 753M1668 753L1669 754L1668 753M856 754L857 755L856 754M884 754L885 755L884 754M1050 754L1051 755L1050 754z"/>
<path style="fill:#75758d; stroke:none;" d="M1078 754L1079 755L1078 754z"/>
<path style="fill:#f0ae9f; stroke:none;" d="M1319 754L1320 755L1319 754M1347 754L1348 755L1347 754M1512 754L1513 755L1512 754M1560.67 754.333L1561.33 754.667L1560.67 754.333M1667 754L1668 755L1667 754M769 755L770 756L769 755z"/>
<path style="fill:#75758d; stroke:none;" d="M857 755L858 756L857 755M1077 755L1078 756L1077 755M1320 755L1321 756L1320 755z"/>
<path style="fill:#f0ae9f; stroke:none;" d="M1482 755L1483 756L1482 755M1511 755L1512 756L1511 755M1532 755L1533 756L1532 755M1557.67 755.333L1558.33 755.667L1557.67 755.333M1665 755L1666 756L1665 755z"/>
<path style="fill:#75758d; stroke:none;" d="M768 756L769 757L768 756M858 756L859 757L858 756M1049 756L1050 757L1049 756M1321 756L1322 757L1321 756z"/>
<path style="fill:#f0ae9f; stroke:none;" d="M1530 756L1531 757L1530 756M1555 756L1556 757L1555 756z"/>
<path style="fill:#75758d; stroke:none;" d="M767 757L768 758L767 757M886 757L887 758L886 757M1048 757L1049 758L1048 757M1349 757L1350 758L1349 757z"/>
<path style="fill:#f0ae9f; stroke:none;" d="M1481 757L1481 763L1482 763L1481 757M1529 757L1530 758L1529 757M1553 757L1554 758L1553 757M1662 757L1663 758L1662 757z"/>
<path style="fill:#75758d; stroke:none;" d="M500 758L500 761L501 761L500 758M766 758L767 759L766 758z"/>
<path style="fill:#f0ae9f; stroke:none;" d="M887 758L888 759L887 758z"/>
<path style="fill:#75758d; stroke:none;" d="M1047 758L1048 759L1047 758z"/>
<path style="fill:#f0ae9f; stroke:none;" d="M1075 758L1076 759L1075 758z"/>
<path style="fill:#75758d; stroke:none;" d="M1350 758L1351 759L1350 758z"/>
<path style="fill:#f0ae9f; stroke:none;" d="M1509 758L1510 759L1509 758M1527 758L1528 759L1527 758M1551 758L1552 759L1551 758M1574 758L1575 759L1574 758M1615.67 758.333L1616.33 758.667L1615.67 758.333M1660 758L1661 759L1660 758M1695 758L1696 759L1695 758z"/>
<path style="fill:#75758d; stroke:none;" d="M364 759L364 762L365 762L364 759z"/>
<path style="fill:#f0ae9f; stroke:none;" d="M477.333 759.667L477.667 760.333L477.333 759.667z"/>
<path style="fill:#75758d; stroke:none;" d="M765 759L766 760L765 759z"/>
<path style="fill:#f0ae9f; stroke:none;" d="M860 759L861 760L860 759M888 759L889 760L888 759M1046 759L1047 760L1046 759M1074 759L1075 760L1074 759M1323 759L1324 760L1323 759M1351 759L1352 760L1351 759M1526 759L1527 760L1526 759M1571 759L1572 760L1571 759z"/>
<path style="fill:#ffffff; stroke:none;" d="M1571.98 759.761C1546.73 766.274 1533.44 801.855 1536.29 825C1537.62 835.847 1542.07 859.331 1558 854.346C1564.87 852.196 1567.29 844.471 1565.35 838C1563.67 832.393 1559.69 827.564 1557.7 822C1552.96 808.73 1554.16 792.218 1561.48 780C1565.22 773.759 1571.25 770.046 1575.38 764.39C1577.54 761.422 1575.36 758.889 1571.98 759.761z"/>
<path style="fill:#f0ae9f; stroke:none;" d="M1576 759L1577 760L1576 759M1619 759L1620 760L1619 759M1657 759L1658 760L1657 759M1694 759L1695 760L1694 759M387 760L388 761L387 760z"/>
<path style="fill:#75758d; stroke:none;" d="M764 760L765 761L764 760M861 760L862 761L861 760M1073 760L1074 761L1073 760M1172 760L1172 761L1234 761L1214 760L1172 760M1324 760L1325 761L1324 760z"/>
<path style="fill:#f0ae9f; stroke:none;" d="M1508 760L1509 761L1508 760M1525 760L1526 761L1525 760M1548 760L1549 761L1548 760M1577 760L1577 763L1578 763L1577 760M1613 760L1614 761L1613 760M1621 760L1622 761L1621 760M1654.67 760.333L1655.33 760.667L1654.67 760.333M1693 760L1694 761L1693 760z"/>
<path style="fill:#75758d; stroke:none;" d="M387.333 761.667L387.667 762.333L387.333 761.667M477 761L478 762L477 761z"/>
<path style="fill:#f0ae9f; stroke:none;" d="M500.333 761.667L500.667 762.333L500.333 761.667z"/>
<path style="fill:#75758d; stroke:none;" d="M763 761L764 762L763 761M862 761L863 762L862 761M889 761L890 762L889 761M1072 761L1073 762L1072 761M1171 761L1171 796L1172 796L1171 761M1325 761L1326 762L1325 761M1352 761L1353 762L1352 761z"/>
<path style="fill:#f0ae9f; stroke:none;" d="M1507 761L1508 762L1507 761M1568 761L1569 762L1568 761M1624.67 761.333L1625.33 761.667L1624.67 761.333M1651.67 761.333L1652.33 761.667L1651.67 761.333M1692 761L1693 762L1692 761M364 762L365 763L364 762M762 762L763 763L762 762z"/>
<path style="fill:#75758d; stroke:none;" d="M890 762L891 763L890 762M1044 762L1045 763L1044 762M1353 762L1354 763L1353 762z"/>
<path style="fill:#f0ae9f; stroke:none;" d="M1545 762L1546 763L1545 762M1566 762L1567 763L1566 762M1613 762L1614 763L1613 762M1627 762L1627 763L1630 763L1627 762M1647.67 762.333L1648.33 762.667L1647.67 762.333z"/>
<path style="fill:#75758d; stroke:none;" d="M760 763L761 764L760 763z"/>
<path style="fill:#f0ae9f; stroke:none;" d="M863 763L864 764L863 763M891 763L892 764L891 763z"/>
<path style="fill:#75758d; stroke:none;" d="M1043 763L1044 764L1043 763z"/>
<path style="fill:#f0ae9f; stroke:none;" d="M1326 763L1327 764L1326 763M1354 763L1355 764L1354 763M1506 763L1507 764L1506 763M1521 763L1522 764L1521 763M1544 763L1545 764L1544 763M1565 763L1566 764L1565 763M1633 763L1633 764L1643 764L1633 763M1689 763L1690 764L1689 763M388 764L389 765L388 764M476 764L477 765L476 764M527 764L527 768L528 768L527 764M615.333 764.667L615.667 765.333L615.333 764.667M759 764L760 765L759 764z"/>
<path style="fill:#75758d; stroke:none;" d="M864 764L865 765L864 764z"/>
<path style="fill:#f0ae9f; stroke:none;" d="M1042 764L1043 765L1042 764M1070 764L1071 765L1070 764z"/>
<path style="fill:#75758d; stroke:none;" d="M1327 764L1328 765L1327 764z"/>
<path style="fill:#f0ae9f; stroke:none;" d="M1520 764L1521 765L1520 764M1543 764L1544 765L1543 764M1563 764L1564 765L1563 764M1575 764L1576 765L1575 764M1615 764L1616 765L1615 764M1688 764L1689 765L1688 764z"/>
<path style="fill:#75758d; stroke:none;" d="M365.333 765.667L365.667 766.333L365.333 765.667M388 765L389 766L388 765M476 765L477 766L476 765M499 765L500 766L499 765z"/>
<path style="fill:#f0ae9f; stroke:none;" d="M757 765L758 766L757 765z"/>
<path style="fill:#75758d; stroke:none;" d="M865 765L866 766L865 765z"/>
<path style="fill:#f0ae9f; stroke:none;" d="M1041 765L1042 766L1041 765z"/>
<path style="fill:#75758d; stroke:none;" d="M1069 765L1070 766L1069 765M1328 765L1329 766L1328 765z"/>
<path style="fill:#f0ae9f; stroke:none;" d="M1482 765L1483 766L1482 765M1505 765L1506 766L1505 765M1519 765L1520 766L1519 765M1542 765L1543 766L1542 765M1562 765L1563 766L1562 765M1574 765L1575 766L1574 765M1616 765L1617 766L1616 765M1686 765L1687 766L1686 765M499 766L500 767L499 766z"/>
<path style="fill:#75758d; stroke:none;" d="M615.333 766.667L615.667 767.333L615.333 766.667z"/>
<path style="fill:#f0ae9f; stroke:none;" d="M755 766L756 767L755 766z"/>
<path style="fill:#75758d; stroke:none;" d="M893 766L894 767L893 766M1068 766L1069 767L1068 766M1356 766L1357 767L1356 766z"/>
<path style="fill:#f0ae9f; stroke:none;" d="M1518 766L1519 767L1518 766M1541 766L1542 767L1541 766M1560 766L1561 767L1560 766M1618 766L1619 767L1618 766M365 767L366 768L365 767M389 767L390 768L389 767M475 767L476 768L475 767z"/>
<path style="fill:#75758d; stroke:none;" d="M637 767L637 770L638 770L637 767M752 767L753 768L752 767z"/>
<path style="fill:#f0ae9f; stroke:none;" d="M753 767L754 768L753 767M894 767L895 768L894 767z"/>
<path style="fill:#75758d; stroke:none;" d="M1040 767L1041 768L1040 767M1067 767L1068 768L1067 767M1357 767L1358 768L1357 767z"/>
<path style="fill:#f0ae9f; stroke:none;" d="M1483 767L1484 768L1483 767M1504 767L1505 768L1504 767M1540 767L1541 768L1540 767M1559 767L1560 768L1559 767M1582 767L1582 768L1586 769L1586 768L1582 767M1606 767L1606 768L1609 768L1606 767M1620 767L1621 768L1620 767M1683 767L1684 768L1683 767z"/>
<path style="fill:#75758d; stroke:none;" d="M389 768L390 769L389 768M475 768L476 769L475 768z"/>
<path style="fill:#f0ae9f; stroke:none;" d="M550 768L551 769L550 768z"/>
<path style="fill:#75758d; stroke:none;" d="M749 768L750 769L749 768z"/>
<path style="fill:#f0ae9f; stroke:none;" d="M750 768L751 769L750 768M867 768L868 769L867 768M895 768L896 769L895 768z"/>
<path style="fill:#75758d; stroke:none;" d="M1039 768L1040 769L1039 768z"/>
<path style="fill:#f0ae9f; stroke:none;" d="M1330 768L1331 769L1330 768M1358 768L1359 769L1358 768M1484 768L1485 769L1484 768M1503 768L1504 769L1503 768M1539 768L1540 769L1539 768M1558 768L1559 769L1558 768M1570 768L1571 769L1570 768z"/>
<path style="fill:#ffffff; stroke:none;" d="M1581.51 769.086C1576.47 771.949 1573.29 782.751 1571.89 788C1566.38 808.579 1570.36 830.082 1583.67 847C1589.86 854.873 1601.88 868.025 1612.96 860.991C1618.72 857.331 1619.75 848.382 1615.57 843.093C1611.09 837.432 1603.23 834.991 1598 829.96C1582.28 814.824 1578.43 795.231 1584.76 775.001C1585.48 772.698 1585.8 766.646 1581.51 769.086M1605 768C1605.52 777.583 1613.18 786.131 1620.04 792.271C1638.22 808.542 1673.36 816.801 1694.96 801.301C1704.47 794.469 1701.15 779.452 1689 778.757C1681.61 778.334 1675.61 784.299 1669 786.771C1658.49 790.699 1647.77 790.808 1637 787.842C1630.06 785.931 1623.44 782.301 1618.04 777.56C1613.61 773.669 1611.31 768.497 1605 768z"/>
<path style="fill:#f0ae9f; stroke:none;" d="M1622 768L1623 769L1622 768M1681 768L1682 769L1681 768z"/>
<path style="fill:#75758d; stroke:none;" d="M366 769L367 770L366 769z"/>
<path style="fill:#f0ae9f; stroke:none;" d="M474 769L475 770L474 769z"/>
<path style="fill:#75758d; stroke:none;" d="M498 769L499 770L498 769M550.333 769.667L550.667 770.333L550.333 769.667z"/>
<path style="fill:#f0ae9f; stroke:none;" d="M749 769L750 770L749 769z"/>
<path style="fill:#75758d; stroke:none;" d="M868 769L869 770L868 769M1038 769L1039 770L1038 769z"/>
<path style="fill:#f0ae9f; stroke:none;" d="M1066 769L1067 770L1066 769z"/>
<path style="fill:#75758d; stroke:none;" d="M1331 769L1332 770L1331 769z"/>
<path style="fill:#f0ae9f; stroke:none;" d="M1485 769L1486 770L1485 769M1502 769L1503 770L1502 769M1538 769L1539 770L1538 769M1557 769L1558 770L1557 769M1569 769L1570 770L1569 769M1580 769L1581 770L1580 769M1604 769L1604 772L1605 772L1604 769M1610 769L1611 770L1610 769M1624 769L1625 770L1624 769M1679 769L1680 770L1679 769M366 770L367 771L366 770z"/>
<path style="fill:#75758d; stroke:none;" d="M390 770L391 771L390 770M474 770L475 771L474 770z"/>
<path style="fill:#f0ae9f; stroke:none;" d="M498 770L499 771L498 770M614 770L615 771L614 770M637.333 770.667L637.667 771.333L637.333 770.667z"/>
<path style="fill:#75758d; stroke:none;" d="M869 770L870 771L869 770M896 770L897 771L896 770z"/>
<path style="fill:#f0ae9f; stroke:none;" d="M1037 770L1038 771L1037 770M1065 770L1066 771L1065 770z"/>
<path style="fill:#75758d; stroke:none;" d="M1332 770L1333 771L1332 770M1359 770L1360 771L1359 770z"/>
<path style="fill:#f0ae9f; stroke:none;" d="M1486 770L1487 771L1486 770M1501 770L1502 771L1501 770M1537 770L1538 771L1537 770M1556 770L1557 771L1556 770M1568 770L1569 771L1568 770M1579 770L1580 771L1579 770M1586 770L1587 771L1586 770M1592 775L1593 775L1598 772C1594.71 769.819 1593.05 771.544 1592 775M1611 770L1612 771L1611 770M1626 770L1627 771L1626 770M1677 770L1678 771L1677 770M314 771L314 774L315 774L314 771z"/>
<path style="fill:#75758d; stroke:none;" d="M528.333 771.667L528.667 772.333L528.333 771.667M614.333 771.667L614.667 772.333L614.333 771.667M750 771L751 772L750 771M897 771L898 772L897 771M1064 771L1065 772L1064 771M1360 771L1361 772L1360 771z"/>
<path style="fill:#f0ae9f; stroke:none;" d="M1488 771L1489 772L1488 771M1499 771L1500 772L1499 771M1514 771L1515 772L1514 771M1567 771L1568 772L1567 771z"/>
<path style="fill:#ffffff; stroke:none;" d="M1594.46 772.176C1588.61 775.462 1594.4 796.111 1596.08 801C1603.05 821.317 1620.41 836.347 1641 841.845C1647.54 843.592 1656.98 846.12 1662.89 841.486C1670.02 835.901 1668.53 825.44 1661 821.089C1654.97 817.61 1645.84 819.848 1639 818.533C1627.44 816.312 1616.82 808.814 1609.3 800C1603.44 793.139 1600.84 785.606 1598.79 777.005C1598.36 775.231 1597.3 770.576 1594.46 772.176z"/>
<path style="fill:#f0ae9f; stroke:none;" d="M1628 771L1629 772L1628 771M1674 771L1675 772L1674 771z"/>
<path style="fill:#75758d; stroke:none;" d="M367 772L368 773L367 772M391 772L392 773L391 772M473 772L474 773L473 772M497 772L498 773L497 772z"/>
<path style="fill:#f0ae9f; stroke:none;" d="M551 772L552 773L551 772z"/>
<path style="fill:#75758d; stroke:none;" d="M695 772L695 773L724 773L695 772z"/>
<path style="fill:#f0ae9f; stroke:none;" d="M751 772L752 773L751 772M870 772L871 773L870 772M898 772L899 773L898 772z"/>
<path style="fill:#75758d; stroke:none;" d="M1063 772L1064 773L1063 772z"/>
<path style="fill:#f0ae9f; stroke:none;" d="M1333 772L1334 773L1333 772M1361 772L1362 773L1361 772M1490.67 772.333L1491.33 772.667L1490.67 772.333M1496.67 772.333L1497.33 772.667L1496.67 772.333M1513 772L1514 773L1513 772M1578 772L1579 773L1578 772M1631 772L1632 773L1631 772M1671.67 772.333L1672.33 772.667L1671.67 772.333z"/>
<path style="fill:#75758d; stroke:none;" d="M336 773L336 777L337 777L336 773z"/>
<path style="fill:#f0ae9f; stroke:none;" d="M367 773L368 774L367 773M497 773L498 774L497 773M528.333 773.667L528.667 774.333L528.333 773.667z"/>
<path style="fill:#75758d; stroke:none;" d="M551.333 773.667L551.667 774.333L551.333 773.667M694 773L694 816L695 816C695 803.781 698.711 784.225 694 773M724 773L725 774L724 773M871 773L872 774L871 773M1035 773L1036 774L1035 773M1334 773L1335 774L1334 773z"/>
<path style="fill:#f0ae9f; stroke:none;" d="M1553 773L1554 774L1553 773M1585 773L1586 774L1585 773M1598 773L1598 776L1599 776L1598 773M1605 773L1606 774L1605 773M1634.67 773.333L1635.33 773.667L1634.67 773.333M1668.67 773.333L1669.33 773.667L1668.67 773.333z"/>
<path style="fill:#75758d; stroke:none;" d="M314.333 774.667L314.667 775.333L314.333 774.667M392 774L393 775L392 774M472 774L473 775L472 774z"/>
<path style="fill:#f0ae9f; stroke:none;" d="M613 774L614 775L613 774z"/>
<path style="fill:#75758d; stroke:none;" d="M636.333 774.667L636.667 775.333L636.333 774.667M752 774L753 775L752 774M872 774L873 775L872 774M1034 774L1035 775L1034 774M1335 774L1336 775L1335 774z"/>
<path style="fill:#f0ae9f; stroke:none;" d="M1512 774L1513 775L1512 774M1534 774L1535 775L1534 774M1552 774L1553 775L1552 774M1577 774L1578 775L1577 774M1614 774L1615 775L1614 774M1638 774L1638 775L1641 775L1638 774M1663 774L1663 775L1666 775L1663 774z"/>
<path style="fill:#75758d; stroke:none;" d="M368 775L369 776L368 775z"/>
<path style="fill:#f0ae9f; stroke:none;" d="M393 775L394 776L393 775M471 775L472 776L471 775z"/>
<path style="fill:#75758d; stroke:none;" d="M496 775L497 776L496 775M613 775L614 776L613 775z"/>
<path style="fill:#f0ae9f; stroke:none;" d="M725 775L726 776L725 775z"/>
<path style="fill:#75758d; stroke:none;" d="M753 775L754 776L753 775M900 775L901 776L900 775z"/>
<path style="fill:#f0ae9f; stroke:none;" d="M1033 775L1034 776L1033 775M1061 775L1062 776L1061 775z"/>
<path style="fill:#75758d; stroke:none;" d="M1363 775L1364 776L1363 775z"/>
<path style="fill:#f0ae9f; stroke:none;" d="M1511 775L1512 776L1511 775M1551 775L1552 776L1551 775M1564 775L1565 776L1564 775M1584 775L1585 776L1584 775M1615 775L1616 776L1615 775M1644 775L1644 776L1649 776L1644 775M1654 775L1654 776L1660 776L1654 775M368 776L369 777L368 776z"/>
<path style="fill:#75758d; stroke:none;" d="M552 776L553 777L552 776z"/>
<path style="fill:#f0ae9f; stroke:none;" d="M636 776L637 777L636 776z"/>
<path style="fill:#75758d; stroke:none;" d="M726 776L727 777L726 776z"/>
<path style="fill:#f0ae9f; stroke:none;" d="M754 776L755 777L754 776M873 776L874 777L873 776M901 776L902 777L901 776M1032 776L1033 777L1032 776z"/>
<path style="fill:#75758d; stroke:none;" d="M1060 776L1061 777L1060 776M1364 776L1365 777L1364 776z"/>
<path style="fill:#f0ae9f; stroke:none;" d="M1550 776L1551 777L1550 776M1563 776L1564 777L1563 776M1576 776L1577 777L1576 776M1607 776L1608 777L1607 776M1616 776L1617 777L1616 776M336.333 777.667L336.667 778.333L336.333 777.667z"/>
<path style="fill:#75758d; stroke:none;" d="M394 777L395 778L394 777M470 777L471 778L470 777M495 777L496 778L495 777M529 777L530 778L529 777z"/>
<path style="fill:#f0ae9f; stroke:none;" d="M612 777L613 778L612 777z"/>
<path style="fill:#75758d; stroke:none;" d="M727 777L728 778L727 777z"/>
<path style="fill:#f0ae9f; stroke:none;" d="M874 777L875 778L874 777M902 777L903 778L902 777z"/>
<path style="fill:#75758d; stroke:none;" d="M1059 777L1060 778L1059 777z"/>
<path style="fill:#f0ae9f; stroke:none;" d="M1337 777L1338 778L1337 777M1365 777L1366 778L1365 777M1510 777L1511 778L1510 777M1532 777L1533 778L1532 777M1549 777L1550 778L1549 777M1617 777L1618 778L1617 777M313 778L314 779L313 778M369 778L370 779L369 778M395 778L396 779L395 778M469 778L470 779L469 778M495 778L496 779L495 778M529 778L530 779L529 778M553 778L554 779L553 778z"/>
<path style="fill:#75758d; stroke:none;" d="M612 778L613 779L612 778M755 778L756 779L755 778M875 778L876 779L875 778M1058 778L1059 779L1058 778M1338 778L1339 779L1338 778z"/>
<path style="fill:#f0ae9f; stroke:none;" d="M1562 778L1563 779L1562 778M1575 778L1576 779L1575 778M1583 778L1584 779L1583 778M1592 778L1592 787L1593 787L1592 778M1608 778L1609 779L1608 778M1685 778L1685 779L1688 779L1685 778M1689 778L1689 779L1692 779L1689 778z"/>
<path style="fill:#75758d; stroke:none;" d="M313 779L314 780L313 779z"/>
<path style="fill:#f0ae9f; stroke:none;" d="M611 779L612 780L611 779z"/>
<path style="fill:#75758d; stroke:none;" d="M635 779L636 780L635 779z"/>
<path style="fill:#f0ae9f; stroke:none;" d="M728 779L729 780L728 779M756 779L757 780L756 779z"/>
<path style="fill:#75758d; stroke:none;" d="M876 779L877 780L876 779M903 779L904 780L903 779M1030 779L1031 780L1030 779M1339 779L1340 780L1339 779M1366 779L1367 780L1366 779z"/>
<path style="fill:#f0ae9f; stroke:none;" d="M1531 779L1532 780L1531 779M1561 779L1562 780L1561 779M1599.33 779.667L1599.67 780.333L1599.33 779.667M1682 779L1683 780L1682 779M1693 779L1694 780L1693 779M269 780L270 781L269 780z"/>
<path style="fill:#75758d; stroke:none;" d="M370 780L371 781L370 780M396 780L397 781L396 780z"/>
<path style="fill:#f0ae9f; stroke:none;" d="M494 780L495 781L494 780M554 780L555 781L554 780z"/>
<path style="fill:#75758d; stroke:none;" d="M611 780L612 781L611 780z"/>
<path style="fill:#f0ae9f; stroke:none;" d="M635 780L636 781L635 780z"/>
<path style="fill:#75758d; stroke:none;" d="M729 780L730 781L729 780M904 780L905 781L904 780M1029 780L1030 781L1029 780z"/>
<path style="fill:#f0ae9f; stroke:none;" d="M1057 780L1058 781L1057 780z"/>
<path style="fill:#75758d; stroke:none;" d="M1367 780L1368 781L1367 780z"/>
<path style="fill:#f0ae9f; stroke:none;" d="M1508 780L1509 781L1508 780M1547 780L1548 781L1547 780M1574 780L1575 781L1574 780M1621 780L1622 781L1621 780M1695 780L1696 781L1695 780z"/>
<path style="fill:#75758d; stroke:none;" d="M268 781L269 782L268 781M270 781L271 782L270 781M312 781L313 782L312 781M335.333 781.667L335.667 782.333L335.333 781.667M397 781L398 782L397 781M467 781L468 782L467 781M530 781L531 782L530 781z"/>
<path style="fill:#f0ae9f; stroke:none;" d="M610 781L611 782L610 781z"/>
<path style="fill:#75758d; stroke:none;" d="M757 781L758 782L757 781z"/>
<path style="fill:#f0ae9f; stroke:none;" d="M877 781L878 782L877 781M1028 781L1029 782L1028 781M1056 781L1057 782L1056 781M1340 781L1341 782L1340 781M1530 781L1531 782L1530 781M1546 781L1547 782L1546 781M1560 781L1561 782L1560 781M1582.33 781.667L1582.67 782.333L1582.33 781.667M1610 781L1611 782L1610 781M1622 781L1623 782L1622 781M1679 781L1680 782L1679 781M267 782L268 783L267 782z"/>
<path style="fill:#75758d; stroke:none;" d="M271 782L272 783L271 782z"/>
<path style="fill:#f0ae9f; stroke:none;" d="M371 782L372 783L371 782z"/>
<path style="fill:#75758d; stroke:none;" d="M398 782L399 783L398 782M466 782L467 783L466 782z"/>
<path style="fill:#f0ae9f; stroke:none;" d="M493 782L494 783L493 782M530 782L531 783L530 782z"/>
<path style="fill:#75758d; stroke:none;" d="M555 782L556 783L555 782M634.333 782.667L634.667 783.333L634.333 782.667z"/>
<path style="fill:#f0ae9f; stroke:none;" d="M730 782L731 783L730 782z"/>
<path style="fill:#75758d; stroke:none;" d="M758 782L759 783L758 782M878 782L879 783L878 782M906 782L907 783L906 782M1055 782L1056 783L1055 782M1341 782L1342 783L1341 782z"/>
<path style="fill:#f0ae9f; stroke:none;" d="M1507 782L1508 783L1507 782M1573 782L1574 783L1573 782M1624 782L1625 783L1624 782z"/>
<path style="fill:#75758d; stroke:none;" d="M272 783L273 784L272 783M311 783L312 784L311 783z"/>
<path style="fill:#f0ae9f; stroke:none;" d="M335 783L336 784L335 783z"/>
<path style="fill:#75758d; stroke:none;" d="M399 783L400 784L399 783M465 783L466 784L465 783M492 783L493 784L492 783M609 783L610 784L609 783M731 783L732 784L731 783z"/>
<path style="fill:#f0ae9f; stroke:none;" d="M759 783L760 784L759 783z"/>
<path style="fill:#75758d; stroke:none;" d="M879 783L880 784L879 783M1054 783L1055 784L1054 783M1342 783L1343 784L1342 783z"/>
<path style="fill:#f0ae9f; stroke:none;" d="M1529 783L1530 784L1529 783M1545 783L1546 784L1545 783M1559.33 783.667L1559.67 784.333L1559.33 783.667M1600.33 783.667L1600.67 784.333L1600.33 783.667M1626 783L1627 784L1626 783M1676 783L1677 784L1676 783M1698 783L1699 784L1698 783z"/>
<path style="fill:#75758d; stroke:none;" d="M266 784L267 785L266 784z"/>
<path style="fill:#f0ae9f; stroke:none;" d="M274 784L275 785L274 784M310 784L311 785L310 784M372 784L373 785L372 784z"/>
<path style="fill:#75758d; stroke:none;" d="M400 784L401 785L400 784M464 784L465 785L464 784z"/>
<path style="fill:#f0ae9f; stroke:none;" d="M492 784L493 785L492 784z"/>
<path style="fill:#75758d; stroke:none;" d="M531 784L532 785L531 784M556 784L557 785L556 784z"/>
<path style="fill:#f0ae9f; stroke:none;" d="M608 784L609 785L608 784z"/>
<path style="fill:#75758d; stroke:none;" d="M732 784L733 785L732 784M1026 784L1027 785L1026 784z"/>
<path style="fill:#f0ae9f; stroke:none;" d="M1506.33 784.667L1506.67 785.333L1506.33 784.667M1612 784L1613 785L1612 784M1628 784L1629 785L1628 784M1674 784L1675 785L1674 784M1699 784L1700 785L1699 784z"/>
<path style="fill:#75758d; stroke:none;" d="M265 785L266 786L265 785M275 785L276 786L275 785M373 785L374 786L373 785M401 785L402 786L401 785M463 785L464 786L463 785M491 785L492 786L491 785M557 785L558 786L557 785M633 785L634 786L633 785M760 785L761 786L760 785z"/>
<path style="fill:#f0ae9f; stroke:none;" d="M880 785L881 786L880 785z"/>
<path style="fill:#75758d; stroke:none;" d="M1025 785L1026 786L1025 785z"/>
<path style="fill:#f0ae9f; stroke:none;" d="M1528.33 785.667L1528.67 786.333L1528.33 785.667M1572 785L1573 786L1572 785M1613 785L1614 786L1613 785M1630 785L1631 786L1630 785M1672 785L1673 786L1672 785M264 786L265 787L264 786z"/>
<path style="fill:#75758d; stroke:none;" d="M276 786L277 787L276 786M334 786L335 787L334 786M402 786L403 787L402 786M462 786L463 787L462 786M532 786L533 787L532 786z"/>
<path style="fill:#f0ae9f; stroke:none;" d="M558 786L559 787L558 786z"/>
<path style="fill:#75758d; stroke:none;" d="M607 786L608 787L607 786z"/>
<path style="fill:#f0ae9f; stroke:none;" d="M633 786L634 787L633 786M733 786L734 787L733 786M761 786L762 787L761 786M881 786L882 787L881 786M1024 786L1025 787L1024 786M1052 786L1053 787L1052 786M1344 786L1345 787L1344 786M1543 786L1544 787L1543 786M1558 786L1559 787L1558 786M1581 786L1581 791L1582 791L1581 786M1614 786L1615 787L1614 786M1632.67 786.333L1633.33 786.667L1632.67 786.333M1669 786L1670 787L1669 786M1700.33 786.667L1700.67 787.333L1700.33 786.667M278 787L279 788L278 787M307 787L308 788L307 787M334 787L335 788L334 787z"/>
<path style="fill:#75758d; stroke:none;" d="M374 787L375 788L374 787M403 787L404 788L403 787M461 787L462 788L461 787z"/>
<path style="fill:#f0ae9f; stroke:none;" d="M490 787L491 788L490 787M532 787L533 788L532 787M559 787L560 788L559 787z"/>
<path style="fill:#75758d; stroke:none;" d="M606 787L607 788L606 787M734 787L735 788L734 787M882 787L883 788L882 787z"/>
<path style="fill:#f0ae9f; stroke:none;" d="M1023 787L1024 788L1023 787z"/>
<path style="fill:#75758d; stroke:none;" d="M1051 787L1052 788L1051 787M1345 787L1346 788L1345 787z"/>
<path style="fill:#f0ae9f; stroke:none;" d="M1505 787L1506 788L1505 787M1601 787L1602 788L1601 787M1615 787L1616 788L1615 787M1635.67 787.333L1636.33 787.667L1635.67 787.333M1666.67 787.333L1667.33 787.667L1666.67 787.333z"/>
<path style="fill:#75758d; stroke:none;" d="M263 788L264 789L263 788z"/>
<path style="fill:#f0ae9f; stroke:none;" d="M280 788L281 789L280 788M306 788L307 789L306 788z"/>
<path style="fill:#75758d; stroke:none;" d="M375 788L376 789L375 788z"/>
<path style="fill:#f0ae9f; stroke:none;" d="M405 788L406 789L405 788M459 788L460 789L459 788z"/>
<path style="fill:#75758d; stroke:none;" d="M489 788L490 789L489 788z"/>
<path style="fill:#f0ae9f; stroke:none;" d="M560 788L561 789L560 788z"/>
<path style="fill:#75758d; stroke:none;" d="M605 788L606 789L605 788M632 788L633 789L632 788M883 788L884 789L883 788M1050 788L1051 789L1050 788M1346 788L1347 789L1346 788z"/>
<path style="fill:#f0ae9f; stroke:none;" d="M1527.33 788.667L1527.67 789.333L1527.33 788.667M1542 788L1543 789L1542 788M1571.33 788.667L1571.67 789.333L1571.33 788.667M1639.67 788.333L1640.33 788.667L1639.67 788.333M1663 788L1664 789L1663 788M262 789L263 790L262 789z"/>
<path style="fill:#75758d; stroke:none;" d="M281 789L282 790L281 789z"/>
<path style="fill:#f0ae9f; stroke:none;" d="M282 789L283 790L282 789z"/>
<path style="fill:#75758d; stroke:none;" d="M305 789L306 790L305 789M333 789L334 790L333 789z"/>
<path style="fill:#f0ae9f; stroke:none;" d="M406 789L407 790L406 789z"/>
<path style="fill:#75758d; stroke:none;" d="M458 789L459 790L458 789M533 789L534 790L533 789z"/>
<path style="fill:#f0ae9f; stroke:none;" d="M561 789L562 790L561 789z"/>
<path style="fill:#75758d; stroke:none;" d="M604 789L605 790L604 789z"/>
<path style="fill:#f0ae9f; stroke:none;" d="M735 789L736 790L735 789z"/>
<path style="fill:#75758d; stroke:none;" d="M763 789L764 790L763 789M1049 789L1050 790L1049 789z"/>
<path style="fill:#f0ae9f; stroke:none;" d="M1504.33 789.667L1504.67 790.333L1504.33 789.667M1557 789L1558 790L1557 789M1602 789L1603 790L1602 789M1644 789L1644 790L1648 790L1644 789M1656 789L1656 790L1660 790L1656 789M284 790L285 791L284 790z"/>
<path style="fill:#75758d; stroke:none;" d="M303 790L304 791L303 790z"/>
<path style="fill:#f0ae9f; stroke:none;" d="M376 790L377 791L376 790z"/>
<path style="fill:#75758d; stroke:none;" d="M407 790L408 791L407 790z"/>
<path style="fill:#f0ae9f; stroke:none;" d="M456 790L457 791L456 790z"/>
<path style="fill:#75758d; stroke:none;" d="M457 790L458 791L457 790z"/>
<path style="fill:#f0ae9f; stroke:none;" d="M488 790L489 791L488 790z"/>
<path style="fill:#75758d; stroke:none;" d="M562 790L563 791L562 790M603 790L604 791L603 790M631 790L632 791L631 790M736 790L737 791L736 790z"/>
<path style="fill:#f0ae9f; stroke:none;" d="M764 790L765 791L764 790M884 790L885 791L884 790z"/>
<path style="fill:#75758d; stroke:none;" d="M1021 790L1022 791L1021 790z"/>
<path style="fill:#f0ae9f; stroke:none;" d="M1347 790L1348 791L1347 790M1541 790L1542 791L1541 790z"/>
<path style="fill:#75758d; stroke:none;" d="M261 791L262 792L261 791M286.667 791.333L287.333 791.667L286.667 791.333M300.667 791.333L301.333 791.667L300.667 791.333M332 791L333 792L332 791M377 791L378 792L377 791M409 791L410 792L409 791M455 791L456 792L455 791M487 791L488 792L487 791M534 791L535 792L534 791M563 791L564 792L563 791z"/>
<path style="fill:#f0ae9f; stroke:none;" d="M601 791L602 792L601 791z"/>
<path style="fill:#75758d; stroke:none;" d="M737 791L738 792L737 791M885 791L886 792L885 791M1020 791L1021 792L1020 791z"/>
<path style="fill:#f0ae9f; stroke:none;" d="M1048 791L1049 792L1048 791z"/>
<path style="fill:#75758d; stroke:none;" d="M1348 791L1349 792L1348 791z"/>
<path style="fill:#f0ae9f; stroke:none;" d="M1593.33 791.667L1593.67 792.333L1593.33 791.667M1603 791L1604 792L1603 791M1619 791L1620 792L1619 791z"/>
<path style="fill:#75758d; stroke:none;" d="M260 792L261 793L260 792M291 792L291 793L298 793L291 792z"/>
<path style="fill:#f0ae9f; stroke:none;" d="M332 792L333 793L332 792z"/>
<path style="fill:#75758d; stroke:none;" d="M378 792L379 793L378 792z"/>
<path style="fill:#f0ae9f; stroke:none;" d="M411 792L412 793L411 792z"/>
<path style="fill:#75758d; stroke:none;" d="M453 792L454 793L453 792M486 792L487 793L486 792z"/>
<path style="fill:#f0ae9f; stroke:none;" d="M565 792L566 793L565 792z"/>
<path style="fill:#75758d; stroke:none;" d="M600 792L601 793L600 792z"/>
<path style="fill:#f0ae9f; stroke:none;" d="M630 792L631 793L630 792z"/>
<path style="fill:#75758d; stroke:none;" d="M765 792L766 793L765 792M886 792L887 793L886 792z"/>
<path style="fill:#f0ae9f; stroke:none;" d="M1019 792L1020 793L1019 792M1047 792L1048 793L1047 792z"/>
<path style="fill:#75758d; stroke:none;" d="M1349 792L1350 793L1349 792z"/>
<path style="fill:#f0ae9f; stroke:none;" d="M1503.33 792.667L1503.67 793.333L1503.33 792.667M1526.33 792.667L1526.67 793.333L1526.33 792.667M1556.33 792.667L1556.67 793.333L1556.33 792.667M1570.33 792.667L1570.67 793.333L1570.33 792.667M1620 792L1621 793L1620 792M259 793L260 794L259 793z"/>
<path style="fill:#75758d; stroke:none;" d="M331 793L332 794L331 793M413 793L414 794L413 793M451 793L452 794L451 793z"/>
<path style="fill:#f0ae9f; stroke:none;" d="M535 793L536 794L535 793z"/>
<path style="fill:#75758d; stroke:none;" d="M566 793L567 794L566 793z"/>
<path style="fill:#f0ae9f; stroke:none;" d="M567 793L568 794L567 793z"/>
<path style="fill:#75758d; stroke:none;" d="M598 793L599 794L598 793M629 793L630 794L629 793z"/>
<path style="fill:#f0ae9f; stroke:none;" d="M738 793L739 794L738 793z"/>
<path style="fill:#75758d; stroke:none;" d="M766 793L767 794L766 793M1046 793L1047 794L1046 793z"/>
<path style="fill:#f0ae9f; stroke:none;" d="M1540 793L1541 794L1540 793M1581 793L1581 798L1582 798L1581 793M1604 793L1605 794L1604 793M1621 793L1622 794L1621 793M1700.33 793.667L1700.67 794.333L1700.33 793.667M331 794L332 795L331 794M379 794L380 795L379 794z"/>
<path style="fill:#75758d; stroke:none;" d="M415 794L416 795L415 794z"/>
<path style="fill:#f0ae9f; stroke:none;" d="M416 794L417 795L416 794M448 794L449 795L448 794z"/>
<path style="fill:#75758d; stroke:none;" d="M449 794L450 795L449 794z"/>
<path style="fill:#f0ae9f; stroke:none;" d="M485 794L486 795L485 794z"/>
<path style="fill:#75758d; stroke:none;" d="M536 794L537 795L536 794M568 794L569 795L568 794z"/>
<path style="fill:#f0ae9f; stroke:none;" d="M569 794L570 795L569 794z"/>
<path style="fill:#75758d; stroke:none;" d="M596 794L597 795L596 794z"/>
<path style="fill:#f0ae9f; stroke:none;" d="M629 794L630 795L629 794z"/>
<path style="fill:#75758d; stroke:none;" d="M739 794L740 795L739 794z"/>
<path style="fill:#f0ae9f; stroke:none;" d="M767 794L768 795L767 794M887 794L888 795L887 794z"/>
<path style="fill:#75758d; stroke:none;" d="M1045 794L1046 795L1045 794z"/>
<path style="fill:#f0ae9f; stroke:none;" d="M1622 794L1623 795L1622 794z"/>
<path style="fill:#75758d; stroke:none;" d="M258 795L259 796L258 795M330 795L331 796L330 795z"/>
<path style="fill:#f0ae9f; stroke:none;" d="M380 795L381 796L380 795z"/>
<path style="fill:#75758d; stroke:none;" d="M418 795L419 796L418 795z"/>
<path style="fill:#f0ae9f; stroke:none;" d="M419 795L420 796L419 795M445 795L446 796L445 795z"/>
<path style="fill:#75758d; stroke:none;" d="M446 795L447 796L446 795z"/>
<path style="fill:#f0ae9f; stroke:none;" d="M484 795L485 796L484 795z"/>
<path style="fill:#75758d; stroke:none;" d="M571 795L572 796L571 795z"/>
<path style="fill:#f0ae9f; stroke:none;" d="M572 795L573 796L572 795M593 795L594 796L593 795z"/>
<path style="fill:#75758d; stroke:none;" d="M594 795L595 796L594 795M628 795L629 796L628 795z"/>
<path style="fill:#f0ae9f; stroke:none;" d="M888 795L889 796L888 795z"/>
<path style="fill:#75758d; stroke:none;" d="M1017 795L1018 796L1017 795z"/>
<path style="fill:#f0ae9f; stroke:none;" d="M1172 795L1172 796L1244 796L1221 795L1172 795M1351 795L1352 796L1351 795M1502.33 795.667L1502.67 796.333L1502.33 795.667M1539 795L1540 796L1539 795M1594.33 795.667L1594.67 796.333L1594.33 795.667M1605 795L1606 796L1605 795M1623 795L1624 796L1623 795M257 796L258 797L257 796M381 796L382 797L381 796z"/>
<path style="fill:#75758d; stroke:none;" d="M421.667 796.333L422.333 796.667L421.667 796.333z"/>
<path style="fill:#f0ae9f; stroke:none;" d="M423 796L424 797L423 796M441 796L442 797L441 796z"/>
<path style="fill:#75758d; stroke:none;" d="M442.667 796.333L443.333 796.667L442.667 796.333z"/>
<path style="fill:#f0ae9f; stroke:none;" d="M483 796L484 797L483 796M537 796L538 797L537 796z"/>
<path style="fill:#75758d; stroke:none;" d="M574.667 796.333L575.333 796.667L574.667 796.333z"/>
<path style="fill:#f0ae9f; stroke:none;" d="M576.667 796.333L577.333 796.667L576.667 796.333M588.667 796.333L589.333 796.667L588.667 796.333z"/>
<path style="fill:#75758d; stroke:none;" d="M590 796L591 797L590 796z"/>
<path style="fill:#f0ae9f; stroke:none;" d="M740 796L741 797L740 796z"/>
<path style="fill:#75758d; stroke:none;" d="M768 796L769 797L768 796M889 796L890 797L889 796M1016 796L1017 797L1016 796M1243 796L1243 808L1244 808L1243 796M1352 796L1353 797L1352 796z"/>
<path style="fill:#f0ae9f; stroke:none;" d="M1606 796L1607 797L1606 796M1699 796L1700 797L1699 796z"/>
<path style="fill:#75758d; stroke:none;" d="M329 797L330 798L329 797z"/>
<path style="fill:#f0ae9f; stroke:none;" d="M382 797L383 798L382 797z"/>
<path style="fill:#75758d; stroke:none;" d="M427 797L427 798L438 798L427 797z"/>
<path style="fill:#f0ae9f; stroke:none;" d="M482 797L483 798L482 797z"/>
<path style="fill:#75758d; stroke:none;" d="M538 797L539 798L538 797M741 797L742 798L741 797z"/>
<path style="fill:#f0ae9f; stroke:none;" d="M769 797L770 798L769 797M1015 797L1016 798L1015 797z"/>
<path style="fill:#75758d; stroke:none;" d="M1353 797L1354 798L1353 797z"/>
<path style="fill:#f0ae9f; stroke:none;" d="M1555 797L1555 800L1556 800L1555 797M1569 797L1569 800L1570 800L1569 797M1626 797L1627 798L1626 797z"/>
<path style="fill:#75758d; stroke:none;" d="M257 798L258 799L257 798M328 798L329 799L328 798z"/>
<path style="fill:#f0ae9f; stroke:none;" d="M383 798L384 799L383 798z"/>
<path style="fill:#75758d; stroke:none;" d="M481 798L482 799L481 798M539 798L540 799L539 798z"/>
<path style="fill:#f0ae9f; stroke:none;" d="M626 798L627 799L626 798z"/>
<path style="fill:#75758d; stroke:none;" d="M742 798L743 799L742 798z"/>
<path style="fill:#f0ae9f; stroke:none;" d="M1014 798L1015 799L1014 798M1525 798L1525 812L1526 812L1525 798M1538.33 798.667L1538.67 799.333L1538.33 798.667M1698 798L1699 799L1698 798z"/>
<path style="fill:#75758d; stroke:none;" d="M258 799L259 800L258 799z"/>
<path style="fill:#f0ae9f; stroke:none;" d="M384 799L385 800L384 799M480 799L481 800L480 799z"/>
<path style="fill:#75758d; stroke:none;" d="M625 799L626 800L625 799M770 799L771 800L770 799z"/>
<path style="fill:#f0ae9f; stroke:none;" d="M891 799L892 800L891 799M1354 799L1355 800L1354 799M1595 799L1596 800L1595 799M1608 799L1609 800L1608 799M1629 799L1630 800L1629 799M1697 799L1698 800L1697 799M259 800L260 801L259 800M327 800L328 801L327 800M385 800L386 801L385 800M479 800L480 801L479 800M540 800L541 801L540 800z"/>
<path style="fill:#75758d; stroke:none;" d="M624 800L625 801L624 800z"/>
<path style="fill:#f0ae9f; stroke:none;" d="M743 800L744 801L743 800z"/>
<path style="fill:#75758d; stroke:none;" d="M771 800L772 801L771 800M892 800L893 801L892 800M1355 800L1356 801L1355 800z"/>
<path style="fill:#f0ae9f; stroke:none;" d="M1501.33 800.667L1501.67 801.333L1501.33 800.667M1609 800L1610 801L1609 800M1631 800L1632 801L1631 800M1696 800L1697 801L1696 800M260 801L261 802L260 801M326 801L327 802L326 801M386 801L387 802L386 801M478 801L479 802L478 801M541 801L542 802L541 801z"/>
<path style="fill:#75758d; stroke:none;" d="M623 801L624 802L623 801M744 801L745 802L744 801z"/>
<path style="fill:#f0ae9f; stroke:none;" d="M772 801L773 802L772 801z"/>
<path style="fill:#75758d; stroke:none;" d="M893 801L894 802L893 801M1356 801L1357 802L1356 801z"/>
<path style="fill:#f0ae9f; stroke:none;" d="M1582 801L1582 804L1583 804L1582 801M1610 801L1611 802L1610 801M1632 801L1633 802L1632 801M1695 801L1696 802L1695 801M325 802L326 803L325 802z"/>
<path style="fill:#75758d; stroke:none;" d="M388 802L389 803L388 802M476 802L477 803L476 802z"/>
<path style="fill:#f0ae9f; stroke:none;" d="M542 802L543 803L542 802z"/>
<path style="fill:#75758d; stroke:none;" d="M622 802L623 803L622 802z"/>
<path style="fill:#f0ae9f; stroke:none;" d="M1537.33 802.667L1537.67 803.333L1537.33 802.667M1596 802L1597 803L1596 802M1611 802L1612 803L1611 802M1634 802L1635 803L1634 802M1693 802L1694 803L1693 802z"/>
<path style="fill:#75758d; stroke:none;" d="M263 803L264 804L263 803z"/>
<path style="fill:#f0ae9f; stroke:none;" d="M324 803L325 804L324 803z"/>
<path style="fill:#75758d; stroke:none;" d="M389 803L390 804L389 803M475 803L476 804L475 803z"/>
<path style="fill:#f0ae9f; stroke:none;" d="M543 803L544 804L543 803z"/>
<path style="fill:#75758d; stroke:none;" d="M621 803L622 804L621 803z"/>
<path style="fill:#f0ae9f; stroke:none;" d="M745 803L746 804L745 803z"/>
<path style="fill:#75758d; stroke:none;" d="M773 803L774 804L773 803z"/>
<path style="fill:#f0ae9f; stroke:none;" d="M894 803L895 804L894 803M1357 803L1358 804L1357 803M1612 803L1613 804L1612 803M1636.67 803.333L1637.33 803.667L1636.67 803.333M1690.67 803.333L1691.33 803.667L1690.67 803.333M264 804L265 805L264 804M323 804L324 805L323 804M390 804L391 805L390 804M474 804L475 805L474 804M544 804L545 805L544 804z"/>
<path style="fill:#75758d; stroke:none;" d="M620 804L621 805L620 804M746 804L747 805L746 804z"/>
<path style="fill:#f0ae9f; stroke:none;" d="M774 804L775 805L774 804M895 804L896 805L895 804M1358 804L1359 805L1358 804M1597.33 804.667L1597.67 805.333L1597.33 804.667M1613 804L1614 805L1613 804M1639 804L1640 805L1639 804M1688 804L1689 805L1688 804z"/>
<path style="fill:#75758d; stroke:none;" d="M266 805L267 806L266 805M392 805L393 806L392 805M472 805L473 806L472 805M619 805L620 806L619 805M896 805L897 806L896 805M1359 805L1360 806L1359 805z"/>
<path style="fill:#f0ae9f; stroke:none;" d="M1500 805L1500 812L1501 812L1500 805M1614 805L1615 806L1614 805M1641.67 805.333L1642.33 805.667L1641.67 805.333M1685 805L1686 806L1685 805M267 806L268 807L267 806z"/>
<path style="fill:#75758d; stroke:none;" d="M320 806L321 807L320 806z"/>
<path style="fill:#f0ae9f; stroke:none;" d="M393 806L394 807L393 806M471 806L472 807L471 806z"/>
<path style="fill:#75758d; stroke:none;" d="M547 806L548 807L547 806z"/>
<path style="fill:#f0ae9f; stroke:none;" d="M618 806L619 807L618 806z"/>
<path style="fill:#75758d; stroke:none;" d="M775 806L776 807L775 806M1360 806L1361 807L1360 806z"/>
<path style="fill:#f0ae9f; stroke:none;" d="M1536 806L1536 810L1537 810L1536 806M1583 806L1584 807L1583 806M1615 806L1616 807L1615 806M1644.67 806.333L1645.33 806.667L1644.67 806.333M1681.67 806.333L1682.33 806.667L1681.67 806.333M269 807L270 808L269 807M319 807L320 808L319 807z"/>
<path style="fill:#75758d; stroke:none;" d="M395 807L369 808L318 808L318 809L377 809L395 807M468 808L468 809L528 809C533.373 809 545.298 811.236 549 807C523.245 813.132 494.194 805.12 468 808M616 807L631 809L673 809L673 808C654.994 808 633.528 811.173 616 807M748 807L749 808L748 807M776 807L777 808L776 807z"/>
<path style="fill:#f0ae9f; stroke:none;" d="M1598 807L1599 808L1598 807M1616 807L1617 808L1616 807M1648.67 807.333L1649.33 807.667L1648.67 807.333M1677.67 807.333L1678.33 807.667L1677.67 807.333z"/>
<path style="fill:#75758d; stroke:none;" d="M251 808L251 809L271 809L251 808M749 808L750 809L749 808M777 808L777 809L809 809L777 808z"/>
<path style="fill:#f0ae9f; stroke:none;" d="M898 808L899 809L898 808z"/>
<path style="fill:#75758d; stroke:none;" d="M929 808L929 809L965 809C955.44 804.989 939.387 808 929 808M987 808L987 809L1014 809L987 808M1244 808L1244 809L1272 809L1244 808z"/>
<path style="fill:#f0ae9f; stroke:none;" d="M1361 808L1362 809L1361 808z"/>
<path style="fill:#75758d; stroke:none;" d="M1392 808L1392 809L1410 809L1392 808z"/>
<path style="fill:#f0ae9f; stroke:none;" d="M1653 808L1653 809L1657 809L1653 808M1670 808L1670 809L1674 809L1670 808z"/>
<path style="fill:#75758d; stroke:none;" d="M899 809L900 810L899 809M1362 809L1363 810L1362 809z"/>
<path style="fill:#f0ae9f; stroke:none;" d="M1584 809L1585 810L1584 809M1599 809L1600 810L1599 809M750 810L751 811L750 810z"/>
<path style="fill:#75758d; stroke:none;" d="M900 810L901 811L900 810M1363 810L1364 811L1363 810z"/>
<path style="fill:#f0ae9f; stroke:none;" d="M1620 810L1621 811L1620 810z"/>
<path style="fill:#75758d; stroke:none;" d="M751 811L752 812L751 811z"/>
<path style="fill:#f0ae9f; stroke:none;" d="M1569 811L1569 815L1570 815L1569 811M901 812L902 813L901 812M1364 812L1365 813L1364 812M1555 812L1555 815L1556 815L1555 812M1585 812L1586 813L1585 812M1601 812L1602 813L1601 812M1623 812L1624 813L1623 812z"/>
<path style="fill:#75758d; stroke:none;" d="M902 813L903 814L902 813z"/>
<path style="fill:#f0ae9f; stroke:none;" d="M1365 813L1366 814L1365 813M1625 813L1626 814L1625 813z"/>
<path style="fill:#75758d; stroke:none;" d="M753 814L754 815L753 814M903 814L904 815L903 814M1366 814L1367 815L1366 814z"/>
<path style="fill:#f0ae9f; stroke:none;" d="M1501 814L1502 815L1501 814M1524 814L1525 815L1524 814M1586 814L1587 815L1586 814M1602 814L1603 815L1602 814M1627 814L1628 815L1627 814z"/>
<path style="fill:#75758d; stroke:none;" d="M754 815L755 816L754 815M1367 815L1368 816L1367 815z"/>
<path style="fill:#f0ae9f; stroke:none;" d="M1603 815L1604 816L1603 815M1629 815L1630 816L1629 815M251 816L251 817L695 817C684.734 812.692 667.158 816 656 816L565 816L251 816M755 816L755 817L831 817L807 816L755 816M905 816L905 817L1294 817L1259 816L1180 816L905 816M1368 816L1368 817L1410 817C1399.01 812.389 1379.96 816 1368 816M1502 816L1503 817L1502 816M1523 816L1524 817L1523 816M1587 816L1588 817L1587 816M1632 816L1633 817L1632 816M1503 817L1504 818L1503 817M1522 817L1523 818L1522 817M1535.33 817.667L1535.67 818.333L1535.33 817.667M1556.33 817.667L1556.67 818.333L1556.33 817.667M1604 817L1605 818L1604 817M1634.67 817.333L1635.33 817.667L1634.67 817.333M1504 818L1505 819L1504 818M1521 818L1522 819L1521 818M1570 818L1570 821L1571 821L1570 818M1588 818L1589 819L1588 818M1605 818L1606 819L1605 818M1638 818L1638 819L1641 819L1638 818M1505 819L1506 820L1505 819M1520 819L1521 820L1520 819M1606 819L1607 820L1606 819M1646 819L1646 820L1653 820L1646 819M1657.67 819.333L1658.33 819.667L1657.67 819.333M1589 820L1590 821L1589 820M1660 820L1661 821L1660 820M1508.67 821.333L1509.33 821.667L1508.67 821.333M1516 821L1517 822L1516 821M1557 821L1558 822L1557 821M1590 821L1591 822L1590 821M1662 821L1663 822L1662 821M1571.33 822.667L1571.67 823.333L1571.33 822.667M1663 822L1664 823L1663 822M1609 823L1610 824L1609 823M1664 823L1665 824L1664 823M1558 824L1559 825L1558 824M1592 824L1593 825L1592 824M1610 824L1611 825L1610 824M1665 824L1666 825L1665 824M1593 825L1594 826L1593 825M1611 825L1612 826L1611 825M1536 826L1536 829L1537 829L1536 826M1559 826L1560 827L1559 826M1572 826L1573 827L1572 826M1594 826L1595 827L1594 826M1612 826L1613 827L1612 826M1560 828L1561 829L1560 828M1667.33 828.667L1667.67 829.333L1667.33 828.667M1573 829L1574 830L1573 829M1616 829L1617 830L1616 829M1561 830L1562 831L1561 830M1617 830L1618 831L1617 830M1574 831L1575 832L1574 831M1599 831L1600 832L1599 831M1537.33 832.667L1537.67 833.333L1537.33 832.667M1562 832L1563 833L1562 832M1600 832L1601 833L1600 832M1620 832L1621 833L1620 832M1563 833L1564 834L1563 833M1575 833L1576 834L1575 833M1601 833L1602 834L1601 833M1621 833L1622 834L1621 833M1603 834L1604 835L1603 834M1623 834L1624 835L1623 834M1667.33 834.667L1667.67 835.333L1667.33 834.667M1564 835L1565 836L1564 835M1576 835L1577 836L1576 835M1604 835L1605 836L1604 835M1625 835L1626 836L1625 835M1538.33 836.667L1538.67 837.333L1538.33 836.667M1606 836L1607 837L1606 836M1627 836L1628 837L1627 836M1565 837L1566 838L1565 837M1577 837L1578 838L1577 837M1608 837L1609 838L1608 837M1628 837L1629 838L1628 837M1666 837L1667 838L1666 837M1631 838L1632 839L1631 838M1539.33 839.667L1539.67 840.333L1539.33 839.667M1578 839L1579 840L1578 839M1611 839L1612 840L1611 839M1633 839L1634 840L1633 839M1665 839L1666 840L1665 839M1566 840L1566 846L1567 846L1566 840M1613 840L1614 841L1613 840M1636 840L1637 841L1636 840M1664 840L1665 841L1664 840M1614 841L1615 842L1614 841M1639 841L1640 842L1639 841M1663 841L1664 842L1663 841M1540.33 842.667L1540.67 843.333L1540.33 842.667M1580 842L1581 843L1580 842M1615 842L1616 843L1615 842M1642.67 842.333L1643.33 842.667L1642.67 842.333M1616 843L1617 844L1616 843M1646 843L1646 844L1649 844L1646 843M1659 843L1660 844L1659 843M1652 844L1652 845L1657 845L1652 844M1541 845L1542 846L1541 845M1582 845L1583 846L1582 845M1617 845L1618 846L1617 845M1583 846L1584 847L1583 846M1542 847L1543 848L1542 847M1565 847L1566 848L1565 847M1618 848L1618 854L1619 854L1618 848M1543 849L1544 850L1543 849M1564 849L1565 850L1564 849M1544 850L1545 851L1544 850M1587 851L1588 852L1587 851M1546 852L1547 853L1546 852M1588 852L1589 853L1588 852M1547 853L1548 854L1547 853M1560 853L1561 854L1560 853M1589 853L1590 854L1589 853M1549.67 854.333L1550.33 854.667L1549.67 854.333M1558 854L1559 855L1558 854M1590 854L1591 855L1590 854M1617 856L1618 857L1617 856M1595 858L1596 859L1595 858M1596 859L1597 860L1596 859M1615 859L1616 860L1615 859M1614 860L1615 861L1614 860M1599 861L1600 862L1599 861M1612 861L1613 862L1612 861M1601 862L1602 863L1601 862M1610 862L1611 863L1610 862M1605.67 863.333L1606.33 863.667L1605.67 863.333z"/>
</svg>
